<?xml version="1.0" encoding="utf-8"?>
<!-- Generator: Adobe Illustrator 17.0.2, SVG Export Plug-In . SVG Version: 6.00 Build 0)  -->
<!DOCTYPE svg PUBLIC "-//W3C//DTD SVG 1.1//EN" "http://www.w3.org/Graphics/SVG/1.1/DTD/svg11.dtd">
<svg version="1.1" id="Layer_1" xmlns="http://www.w3.org/2000/svg" xmlns:xlink="http://www.w3.org/1999/xlink" x="0px" y="0px"
	 width="16px" height="16px" viewBox="0 0 16 16" enable-background="new 0 0 16 16" xml:space="preserve">
<g>
	<path fill="#258AC5" d="M2.479,10.355C3.295,9.814,4.2,9.517,5.075,9.228c0.126-0.041,0.251-0.082,0.376-0.124l0.026-0.008
		c0.185-0.065,0.36-0.126,0.504-0.205c0.006-0.015,0.016-0.04,0.027-0.082c-0.721-1.052-1.21-2.678-1.21-4.072
		c0-1.182,0.371-2.057,1.072-2.59C5.567,1.994,5.201,1.935,4.808,1.935c-1.048,0-1.897,0.419-1.897,1.921
		c0,0.998,0.374,2.221,0.932,2.932C3.839,6.844,3.832,6.9,3.822,6.956C3.789,7.109,3.735,7.28,3.592,7.365
		C3.432,7.46,3.254,7.52,3.079,7.581C2.354,7.825,1.604,8.041,0.96,8.468c-0.335,0.22-0.562,0.603-0.687,0.978
		c-0.129,0.39-0.182,0.935-0.174,1.242h1.979C2.203,10.535,2.337,10.449,2.479,10.355z"/>
	<path fill="#258AC5" d="M15.729,9.447c-0.125-0.376-0.352-0.743-0.687-0.964c-0.644-0.428-1.395-0.65-2.12-0.894
		c-0.175-0.061-0.353-0.125-0.513-0.22c-0.143-0.085-0.196-0.258-0.229-0.41c-0.015-0.081-0.024-0.163-0.028-0.245
		c0.526-0.72,0.875-1.894,0.875-2.857c0-1.503-0.849-1.922-1.897-1.922c-0.398,0-0.768,0.061-1.073,0.219
		c0.695,0.534,1.063,1.407,1.063,2.584c0,1.356-0.455,2.918-1.147,3.977C9.975,8.727,9.977,8.739,9.979,8.75
		c0.018,0.082,0.033,0.125,0.042,0.146c0.152,0.085,0.333,0.151,0.536,0.222l0.304,0.101c0.898,0.298,1.827,0.603,2.663,1.158
		c0.135,0.089,0.263,0.157,0.383,0.31h1.996C15.911,10.382,15.858,9.837,15.729,9.447z"/>
</g>
<path fill="#258AC5" d="M14.091,12.204c-0.167-0.501-0.47-0.997-0.916-1.292c-0.859-0.57-1.859-0.87-2.827-1.195
	c-0.233-0.082-0.47-0.169-0.684-0.295C9.474,9.309,9.403,9.078,9.359,8.874C9.339,8.766,9.327,8.656,9.321,8.547
	c0.701-0.96,1.167-2.525,1.167-3.809c0-2.004-1.132-2.562-2.529-2.562c-1.397,0-2.529,0.558-2.529,2.562
	c0,1.33,0.499,2.962,1.243,3.91c-0.007,0.075-0.016,0.15-0.029,0.224C6.599,9.074,6.528,9.302,6.338,9.415
	C6.124,9.542,5.887,9.622,5.654,9.704c-0.967,0.326-1.968,0.612-2.826,1.183c-0.446,0.294-0.749,0.816-0.916,1.317
	c-0.172,0.52-0.242,1.17-0.232,1.669h6.321h6.321C14.333,13.374,14.262,12.724,14.091,12.204z"/>
</svg>
