<?xml version="1.0"?>
<svg width="73.4" height="57.6" xmlns="http://www.w3.org/2000/svg">

 <g>
  <title>background</title>
  <rect fill="none" id="canvas_background" height="402" width="582" y="-1" x="-1"/>
 </g>
 <g>
  <title>Layer 1</title>
  <g id="svg_1">
   <path id="svg_2" d="m57.799999,24c-2.5,-0.799999 -5.400002,1.299999 -6.299999,4c-0.900002,2.799999 0.5,5.200001 3,6c2.5,0.799999 5,-0.200001 6,-2.9c0.799999,-2.800001 -0.200001,-6.300001 -2.700001,-7.1zm1.200001,6.299999c-0.599998,1.799999 -2.400002,2.599998 -4,2.099998c-1.599998,-0.499998 -2.599998,-2.199999 -1.900002,-4.099998c0.600002,-1.800001 2.5,-3.1 4.200001,-2.6c1.600002,0.500002 2.299999,2.700001 1.700001,4.6z" fill="#555555"/>
   <path id="svg_3" d="m18.9,23.6c-2.5,-0.800001 -5,0.199999 -5.9,2.9c-0.900001,2.799999 0.1,6.299999 2.599999,7.099998c2.499999,0.800003 5.400001,-1.299999 6.3,-3.999998c0.9,-2.800001 -0.5,-5.200001 -3,-6zm1.4,5.799999c-0.6,1.800001 -2.5,3.1 -4.200001,2.6c-1.599999,-0.5 -2.4,-2.700001 -1.799999,-4.6c0.599999,-1.799999 2.400002,-2.6 4,-2.1c1.700001,0.5 2.6,2.200001 2,4.1z" fill="#555555"/>
   <path id="svg_4" d="m12.4,0c-4.099999,12.5 -8.3,25 -12.4,37.400002c13.9,26.200001 47.099998,-6 61,20.200001c4.099998,-12.5 8.300003,-25 12.400002,-37.400002c-13.900002,-26.200001 -47.100002,6 -61.000002,-20.200001zm49.500002,46.900002c-0.099998,0.200001 -0.200001,0.400002 -0.399998,0.400002c-0.200001,0 -0.400002,-0.200001 -0.5,-0.400002c-0.200001,-0.299999 -0.200001,-0.399998 -0.300003,-0.5c-1.299999,-1.599998 -3,-1 -3.599998,0.799999c-0.099998,0.200001 -0.200001,0.5 -0.400002,0.600002c-0.199997,0.099998 -0.399998,0.099998 -0.599998,0c-13.600002,-10.5 -35.700001,4.5 -49.400002,-5.900002c-0.2,-0.100002 -0.3,-0.400002 -0.4,-0.600002c-0.1,-0.299999 -0.1,-0.5 0,-0.799999c0,0 0.1,-0.200001 0.1,-0.200001c0.6,-1.899998 -0.2,-4.699997 -1.6,-6.099998c-0.2,-0.199997 -0.4,-0.5 -0.4,-0.900002c-0.1,-0.299999 -0.1,-0.699997 0,-1c2.4,-7.199997 4.8,-14.399998 7.2,-21.699998c0.099999,-0.200001 0.2,-0.400001 0.4,-0.400001c0.2,0 0.4,0.2 0.5,0.400001c1.2,2 3.2,1.7 3.9,-0.3c0.1,-0.2 0.200001,-0.5 0.4,-0.6c0.200001,-0.099999 0.400002,-0.2 0.6,0c13.6,10.599998 35.699999,-4.400001 49.299997,5.999999c0.199997,0.1 0.300003,0.400001 0.400002,0.7c0.099998,0.300001 0.099998,0.6 0,0.800001c-0.200005,-0.1 -0.5,-0.200001 -0.700005,-0.300001c0.200005,0.200001 0.400002,0.4 0.600006,0.6c-0.700005,2 0.299995,4.700001 1.699997,6.200001c0.199997,0.199999 0.300003,0.5 0.400002,0.799999c0.099998,0.299999 0.099998,0.700001 0,0.9c-2.400002,7.1 -4.799995,14.300001 -7.199997,21.500002z" fill="#555555"/>
   <path id="svg_5" d="m40.700001,16.799999c-6.900002,1 -14.1,6.4 -16.299999,13c-2.200001,6.700001 1.299999,12.100002 8.299999,11.100002c7,-1 14.100002,-6.400002 16.299999,-13.000002c2.200001,-6.699999 -1.400002,-12.2 -8.299999,-11.1z" fill="#555555"/>
  </g>
 </g>
</svg>