<?xml version="1.0"?>
<svg width="62" height="62" xmlns="http://www.w3.org/2000/svg">
 <metadata id="metadata3041">image/svg+xml</metadata>

 <g>
  <title>background</title>
  <rect fill="none" id="canvas_background" height="64" width="64" y="-1" x="-1"/>
 </g>
 <g>
  <title>Layer 1</title>
  <path fill="#555555" stroke="#555555" stroke-width="2.323" stroke-miterlimit="4" id="path3035" d="m58.980049,2.65095c-3.397648,0 -7.70639,2.3055 -11.794727,5.35294l-8.469822,8.757689l-10.48226,-1.019609l1.13747,-1.18347c0.15641,-0.16273 0.15641,-0.4199 0,-0.58263l-1.03248,-1.07423c-0.156401,-0.16273 -0.40358,-0.16273 -0.55998,0l-2.449949,2.54902l-5.372381,-0.528009l1.22497,-1.27451c0.156132,-0.16301 0.156132,-0.4384 0,-0.60084l-1.032469,-1.056021c-0.15641,-0.162729 -0.403591,-0.162729 -0.55999,0l-2.554941,2.65826l-8.854809,-0.85574l-2.799941,3.11344l9.55479,3.09524l8.34732,3.20447l5.65237,3.696081l-7.94482,8.211479c-2.684719,3.690311 -4.871149,7.237831 -6.54486,10.17786l-10.18477,-0.819328l-1.27747,1.329128l8.50481,5.043411c-0.50677,1.030468 -0.787479,1.63866 -0.787479,1.63866c0,0 0.589499,-0.275963 1.57496,-0.782913l4.6724,9.17646l1.18997,-1.238087l-0.45499,-10.978992c2.83934,-1.715611 6.255201,-3.956718 9.81728,-6.75489l7.909832,-8.24789l3.342419,5.44397l3.167431,8.484581l3.202431,10.614841l2.904938,-2.985992l-0.927479,-10.487389l1.977451,-2.057419c0.155857,-0.16272 0.155857,-0.43811 0,-0.600842l-1.032471,-1.056019c-0.156952,-0.162731 -0.404129,-0.162731 -0.55999,0l-0.664989,0.691879l-0.349991,-3.93277l2.607441,-2.712891c0.155857,-0.16272 0.155857,-0.420467 0,-0.58263l-1.032471,-1.07423c-0.156952,-0.162727 -0.404129,-0.162727 -0.55999,0l-1.294971,1.34734l-0.997478,-11.252089l8.662308,-9.0308c2.917511,-4.14102 5.12738,-8.47605 5.12738,-11.81652z"/>
 </g>
</svg>