<?xml version="1.0" encoding="utf-8"?>
<!-- Generator: Adobe Illustrator 18.1.0, SVG Export Plug-In . SVG Version: 6.00 Build 0)  -->
<!DOCTYPE svg PUBLIC "-//W3C//DTD SVG 1.1//EN" "http://www.w3.org/Graphics/SVG/1.1/DTD/svg11.dtd">
<svg version="1.1" id="Layer_1" xmlns="http://www.w3.org/2000/svg" xmlns:xlink="http://www.w3.org/1999/xlink" x="0px" y="0px"
	 viewBox="0 0 595.3 841.9" enable-background="new 0 0 595.3 841.9" xml:space="preserve">
<g>
	<path fill="#FFFFFF" d="M297.6,123.3C133.2,123.3,0,256.5,0,420.9s133.2,297.6,297.6,297.6s297.6-133.2,297.6-297.6
		S462.1,123.3,297.6,123.3z M297.6,707C139.7,707,11.6,578.9,11.6,420.9s128.1-286.1,286.1-286.1S583.7,263,583.7,420.9
		S455.6,707,297.6,707z"/>
	<g>
		<path fill="#FFFFFF" d="M142.5,574.2c-2.1,0-3.8-0.2-5.4-0.6V566c1.6,0.4,3,0.6,4.3,0.6c2,0,3.4-0.6,4.3-1.9
			c0.9-1.2,1.3-3.2,1.3-5.8v-40.1h9.1v40.1c0,5-1.1,8.8-3.4,11.4S147,574.2,142.5,574.2z"/>
		<path fill="#FFFFFF" d="M181,562.2c-5.3,0-9.4-1.5-12.4-4.4c-3-2.9-4.5-7-4.5-12.4c0-5.5,1.4-9.7,4.1-12.7c2.7-3,6.5-4.5,11.4-4.5
			c4.6,0,8.2,1.3,10.8,4s3.9,6.3,3.9,10.9v4.3h-21.1c0.1,2.5,0.8,4.5,2.3,5.9c1.4,1.4,3.4,2.1,5.9,2.1c2,0,3.8-0.2,5.6-0.6
			s3.6-1.1,5.5-2v6.9c-1.6,0.8-3.2,1.4-5,1.7C185.7,562,183.5,562.2,181,562.2z M179.7,534.6c-1.9,0-3.4,0.6-4.5,1.8
			c-1.1,1.2-1.7,2.9-1.8,5.1H186c0-2.2-0.6-3.9-1.7-5.1S181.6,534.6,179.7,534.6z"/>
		<path fill="#FFFFFF" d="M224.5,551.9c0,3.4-1.2,5.9-3.5,7.7c-2.3,1.8-5.8,2.6-10.5,2.6c-2.4,0-4.4-0.2-6.1-0.5
			c-1.7-0.3-3.3-0.8-4.7-1.4v-7.4c1.7,0.8,3.5,1.4,5.6,2s3.9,0.8,5.5,0.8c3.2,0,4.9-0.9,4.9-2.8c0-0.7-0.2-1.3-0.6-1.7
			c-0.4-0.4-1.2-0.9-2.2-1.5s-2.5-1.2-4.2-1.9c-2.5-1.1-4.4-2-5.6-2.9c-1.2-0.9-2-1.9-2.6-3.1c-0.5-1.2-0.8-2.6-0.8-4.3
			c0-2.9,1.1-5.2,3.4-6.8c2.3-1.6,5.5-2.4,9.6-2.4c3.9,0,7.8,0.9,11.5,2.6l-2.7,6.4c-1.6-0.7-3.2-1.3-4.6-1.7
			c-1.4-0.4-2.9-0.7-4.4-0.7c-2.6,0-4,0.7-4,2.1c0,0.8,0.4,1.5,1.3,2.1s2.7,1.5,5.6,2.6c2.6,1,4.4,2,5.6,2.9
			c1.2,0.9,2.1,1.9,2.6,3.1C224.2,548.8,224.5,550.2,224.5,551.9z"/>
		<path fill="#FFFFFF" d="M254.2,561.6h-25.9v-5.3l15.2-20.7h-14.3v-6.8h24.4v5.8l-14.8,20.1h15.3V561.6z"/>
		<path fill="#FFFFFF" d="M274,562.2c-10.2,0-15.3-5.6-15.3-16.8c0-5.6,1.4-9.8,4.2-12.8c2.8-2.9,6.7-4.4,11.9-4.4
			c3.8,0,7.2,0.7,10.2,2.2l-2.6,6.9c-1.4-0.6-2.7-1-3.9-1.4c-1.2-0.4-2.4-0.5-3.6-0.5c-4.6,0-7,3.3-7,9.9c0,6.4,2.3,9.6,7,9.6
			c1.7,0,3.3-0.2,4.8-0.7c1.5-0.5,2.9-1.2,4.4-2.2v7.6c-1.4,0.9-2.9,1.6-4.4,1.9S276.2,562.2,274,562.2z"/>
		<path fill="#FFFFFF" d="M314.3,561.6h-25.9v-5.3l15.2-20.7h-14.3v-6.8h24.4v5.8L299,554.8h15.3V561.6z"/>
		<path fill="#FFFFFF" d="M335.6,562.2c-5.3,0-9.4-1.5-12.4-4.4c-3-2.9-4.5-7-4.5-12.4c0-5.5,1.4-9.7,4.1-12.7
			c2.7-3,6.5-4.5,11.4-4.5c4.6,0,8.2,1.3,10.8,4s3.9,6.3,3.9,10.9v4.3h-21.1c0.1,2.5,0.8,4.5,2.3,5.9c1.4,1.4,3.4,2.1,5.9,2.1
			c2,0,3.8-0.2,5.6-0.6s3.6-1.1,5.5-2v6.9c-1.6,0.8-3.2,1.4-5,1.7S338.2,562.2,335.6,562.2z M334.4,534.6c-1.9,0-3.4,0.6-4.5,1.8
			s-1.7,2.9-1.8,5.1h12.5c0-2.2-0.6-3.9-1.7-5.1S336.3,534.6,334.4,534.6z"/>
		<path fill="#FFFFFF" d="M390.1,528.2c1.2,0,2.2,0.1,3,0.3l-0.7,8.4c-0.7-0.2-1.6-0.3-2.6-0.3c-2.9,0-5.1,0.7-6.7,2.2
			s-2.4,3.5-2.4,6.2v16.7h-8.9v-32.8h6.8l1.3,5.5h0.4c1-1.8,2.4-3.3,4.1-4.4C386.2,528.8,388.1,528.2,390.1,528.2z"/>
		<path fill="#FFFFFF" d="M419.9,561.6l-1.7-4.5h-0.2c-1.5,1.9-3.1,3.2-4.6,3.9s-3.7,1.1-6.2,1.1c-3.1,0-5.6-0.9-7.4-2.7
			c-1.8-1.8-2.7-4.4-2.7-7.7c0-3.5,1.2-6,3.6-7.7c2.4-1.7,6.1-2.6,11-2.7l5.7-0.2v-1.4c0-3.3-1.7-5-5.1-5c-2.6,0-5.7,0.8-9.2,2.4
			l-3-6c3.8-2,7.9-3,12.5-3c4.4,0,7.8,1,10.1,2.9c2.3,1.9,3.5,4.8,3.5,8.7v21.8H419.9z M417.3,546.4l-3.5,0.1
			c-2.6,0.1-4.5,0.5-5.8,1.4c-1.3,0.9-1.9,2.2-1.9,3.9c0,2.5,1.4,3.8,4.3,3.8c2.1,0,3.7-0.6,5-1.8c1.2-1.2,1.9-2.8,1.9-4.7V546.4z"
			/>
		<path fill="#FFFFFF" d="M458.1,561.6h-25.9v-5.3l15.2-20.7h-14.3v-6.8h24.4v5.8l-14.8,20.1h15.3V561.6z"/>
	</g>
	<g>
		<g>
			<path fill="#FFFFFF" d="M295,454.7c-50.5,0-91.6-41.1-91.6-91.6c0-4.7,3.8-8.6,8.6-8.6c4.7,0,8.6,3.8,8.6,8.6
				c0,41,33.4,74.4,74.4,74.4c41,0,74.4-33.4,74.4-74.4c0-41-33.4-74.4-74.4-74.4c-4.7,0-8.6-3.8-8.6-8.6c0-4.7,3.8-8.6,8.6-8.6
				c50.5,0,91.6,41.1,91.6,91.6C386.6,413.6,345.5,454.7,295,454.7L295,454.7z"/>
		</g>
		<g>
			<path fill="#FFFFFF" d="M306.7,315.2c-2.3,0-4.7-1-6.4-2.9l-23.4-26.1c-2.9-3.3-2.9-8.2,0-11.5l23.4-26.1
				c3.2-3.5,8.6-3.8,12.1-0.7c3.5,3.2,3.8,8.6,0.7,12.1l-18.3,20.4l18.3,20.4c3.2,3.5,2.9,9-0.7,12.1
				C310.8,314.5,308.8,315.2,306.7,315.2L306.7,315.2z"/>
		</g>
	</g>
</g>
</svg>
