<?xml version="1.0" encoding="utf-8"?>
<!-- Generator: Adobe Illustrator 18.1.0, SVG Export Plug-In . SVG Version: 6.00 Build 0)  -->
<!DOCTYPE svg PUBLIC "-//W3C//DTD SVG 1.1//EN" "http://www.w3.org/Graphics/SVG/1.1/DTD/svg11.dtd">
<svg version="1.1" id="Layer_1" xmlns="http://www.w3.org/2000/svg" xmlns:xlink="http://www.w3.org/1999/xlink" x="0px" y="0px"
	 viewBox="0 0 595.3 841.9" enable-background="new 0 0 595.3 841.9" xml:space="preserve">
<g>
	<path fill="#FFFFFF" d="M200.4,447c1.1,0.8,2.9,1.7,5.2,2.9c1.7,0.6,3,1.3,4,1.9c1,0.5,1.7,1,2.1,1.4c0.5,0.5,0.6,1,0.6,1.6
		c0,1.7-1.6,2.7-4.6,2.7c-1.4,0-3.2-0.3-5.2-0.8c-1.9-0.5-3.8-1.1-5.4-1.9v7c1.4,0.6,2.9,1.1,4.4,1.4s3.5,0.5,5.9,0.5
		c4.4,0,7.8-0.8,10-2.5c2.2-1.7,3.3-4.1,3.3-7.3c0-1.6-0.3-2.9-0.8-4c-0.5-1.1-1.4-2.1-2.5-3c-1.1-0.8-2.9-1.7-5.4-2.7
		c-2.7-1.1-4.4-1.9-5.2-2.5c-0.8-0.6-1.3-1.3-1.3-1.9c0-1.4,1.3-2.1,3.8-2.1c1.4,0,2.9,0.2,4.1,0.6c1.4,0.5,2.9,1,4.4,1.6l2.5-6.2
		c-3.5-1.6-7.1-2.4-11-2.4c-4,0-7,0.8-9.2,2.2c-2.2,1.6-3.2,3.7-3.2,6.5c0,1.6,0.3,3,0.8,4.1C198.5,445.1,199.3,446,200.4,447z"/>
	<path fill="#FFFFFF" d="M237.4,463.5c2.1,0,4-0.2,5.2-0.5c1.4-0.3,2.9-1,4.1-1.7V454c-1.4,1-2.9,1.6-4.1,2.1
		c-1.4,0.5-2.9,0.6-4.6,0.6c-4.4,0-6.7-3-6.7-9.2c0-6.3,2.2-9.4,6.7-9.4c1.1,0,2.4,0.2,3.5,0.5c1.1,0.3,2.4,0.8,3.8,1.3l2.5-6.5
		c-2.9-1.4-6-2.1-9.7-2.1c-4.9,0-8.7,1.4-11.4,4.1c-2.7,2.9-4,6.8-4,12.2C222.8,458.2,227.7,463.5,237.4,463.5z"/>
	<path fill="#FFFFFF" d="M259.8,447.1c0-2.5,0.8-4.4,2.2-5.9c1.6-1.4,3.7-2.1,6.3-2.1c1,0,1.7,0.2,2.5,0.3l0.6-7.9
		c-0.8-0.2-1.7-0.3-2.9-0.3c-1.9,0-3.7,0.5-5.4,1.6c-1.6,1.1-3,2.5-4,4.3h-0.5l-1.3-5.2H251V463h8.6v-15.9H259.8z"/>
	<path fill="#FFFFFF" d="M300.6,438.7c-1.3-2.4-3-4.3-5.2-5.6c-2.2-1.3-4.9-1.9-7.9-1.9c-4.8,0-8.6,1.4-11.3,4.3
		c-2.7,2.9-4,6.8-4,11.9c0,3.3,0.6,6.2,1.9,8.6c1.4,2.4,3.2,4.3,5.4,5.6c2.2,1.3,4.9,1.9,7.9,1.9c4.8,0,8.6-1.4,11.1-4.3
		c2.7-2.9,4-6.8,4-11.9C302.5,444,301.8,441.1,300.6,438.7z M292.5,454.3c-1,1.6-2.7,2.4-4.9,2.4c-2.2,0-4-0.8-4.9-2.4
		c-1-1.6-1.6-4-1.6-7c0-3,0.5-5.4,1.6-7c1-1.6,2.7-2.4,4.9-2.4c2.2,0,4,0.8,4.9,2.4c1,1.6,1.4,3.8,1.4,7
		C293.9,450.5,293.4,452.7,292.5,454.3z"/>
	<rect x="321.8" y="419.5" fill="#FFFFFF" width="8.6" height="43.5"/>
	<rect x="307.8" y="419.5" fill="#FFFFFF" width="8.6" height="43.5"/>
	<path fill="#FFFFFF" d="M347.3,463.5c2.1,0,4-0.3,5.7-1.1c1.7-0.8,3-1.9,3.8-3.3h0.5l1.1,4h6.5v-31.3h-8.6v14.6
		c0,3.7-0.5,6.3-1.6,7.9c-1.1,1.6-2.9,2.4-5.2,2.4c-1.7,0-3-0.6-3.8-1.7c-0.8-1.1-1.3-2.9-1.3-5.1v-18.3h-8.6v20.3
		c0,3.7,1,6.5,2.9,8.4C341,462.5,343.7,463.5,347.3,463.5z"/>
	<path fill="#FFFFFF" d="M375.4,427.9c1.6,0,2.7-0.3,3.5-1.1s1.1-1.7,1.1-3c0-2.7-1.6-4.1-4.6-4.1s-4.6,1.4-4.6,4.1
		S372.2,427.9,375.4,427.9z"/>
	<path fill="#FFFFFF" d="M363,476c1.6,0.5,3.5,0.6,5.6,0.6c3.5,0,6.2-1,8.1-2.7c1.9-1.7,2.9-4.3,2.9-7.6v-34.6H371v33.3
		c0,1.6-0.3,2.7-1,3.5s-1.7,1.3-3.2,1.3c-1.4,0-2.7-0.2-4-0.5v6.7H363z"/>
	<path fill="#FFFFFF" d="M125.2,502.4c-2.2-1.7-5.4-2.7-9.7-2.7c-4.4,0-8.4,1-11.9,2.9l2.9,5.7c3.3-1.4,6.3-2.2,8.7-2.2
		c3.2,0,4.9,1.6,4.9,4.8v1.4l-5.4,0.2c-4.6,0.2-8.1,1.1-10.5,2.5c-2.4,1.6-3.5,4-3.5,7.3c0,3.2,0.8,5.6,2.5,7.3s4.1,2.5,7.1,2.5
		c2.4,0,4.4-0.3,5.9-1.1c1.6-0.6,3-1.9,4.4-3.8h0.2l1.6,4.3h6v-20.8C128.6,507,127.5,504.3,125.2,502.4z M120,519.7
		c0,1.9-0.6,3.3-1.7,4.4c-1.1,1.1-2.7,1.7-4.8,1.7c-2.7,0-4.1-1.3-4.1-3.7c0-1.7,0.6-2.9,1.7-3.8c1.3-0.8,3-1.3,5.6-1.3l3.3-0.2
		V519.7z"/>
	<path fill="#FFFFFF" d="M160.2,504.1c-1.7-2.9-4.8-4.3-8.4-4.3c-4,0-6.8,1.6-8.9,4.6h-0.3c0.2-2.9,0.3-4.9,0.3-6.2v-10.2h-8.6v43.5
		h6.5l1.4-3.5h0.6c2.1,2.7,4.9,4,8.6,4c3.7,0,6.7-1.4,8.7-4.3c2.2-2.9,3.2-6.8,3.2-11.9S162.2,507,160.2,504.1z M153.3,522.9
		c-1.1,1.6-2.4,2.4-4.1,2.4c-2.2,0-3.8-0.8-4.8-2.2c-1-1.4-1.4-3.8-1.4-7.1v-1c0-3,0.5-5.1,1.4-6.3c1-1.3,2.5-1.9,4.6-1.9
		c1.7,0,3.2,0.8,4.3,2.4c1.1,1.6,1.6,3.8,1.6,7C154.9,518.9,154.3,521.3,153.3,522.9z"/>
	<path fill="#FFFFFF" d="M182.6,535.6l13.2-35.2h-9l-5.7,17.6c-0.6,1.7-1,3.5-1.3,5.4h-0.2c-0.2-2.1-0.5-3.8-1.1-5.4l-5.9-17.6h-9.4
		l12.4,31l-0.5,1.6c-0.6,1.9-1.6,3.2-2.7,4.1c-1.1,1-2.4,1.4-4,1.4c-1.3,0-2.4-0.2-3.3-0.3v6.8c1.4,0.3,2.9,0.5,4.3,0.5
		c3,0,5.6-0.8,7.8-2.4C179.7,541.3,181.4,538.7,182.6,535.6z"/>
	<path fill="#FFFFFF" d="M228,487.9v10c0,1.7,0.2,4,0.6,6.2h-0.3c-2.1-3-5.1-4.6-9-4.6c-3.8,0-6.7,1.4-8.7,4.3s-3.2,6.8-3.2,11.9
		c0,5.1,1.1,9,3.2,11.9c2.1,2.9,4.9,4.3,8.6,4.3c4.1,0.2,7.1-1.3,9-4.4h0.3l1.6,4h6.5v-43.5H228z M228.7,517c-0.2,3-0.6,5.2-1.6,6.5
		s-2.5,1.9-4.8,1.9c-2.1,0-3.7-0.8-4.8-2.4s-1.6-3.8-1.6-7c0-3,0.5-5.4,1.6-7s2.5-2.4,4.4-2.4c2.4,0,4,0.8,5.1,2.2
		c1.1,1.4,1.6,3.8,1.6,7.1V517z"/>
	<path fill="#FFFFFF" d="M269.1,507.3c-1.3-2.4-3-4.3-5.2-5.6c-2.2-1.3-4.9-1.9-7.9-1.9c-4.8,0-8.6,1.4-11.3,4.3s-4,6.8-4,11.9
		c0,3.3,0.6,6.2,1.9,8.6c1.3,2.4,3,4.3,5.2,5.7c2.2,1.3,4.9,1.9,7.9,1.9c4.9-0.2,8.6-1.6,11.3-4.4c2.7-2.9,4-6.8,4-11.9
		C271,512.5,270.3,509.7,269.1,507.3z M260.7,522.9c-1,1.6-2.7,2.4-4.9,2.4c-2.1,0-3.8-0.8-4.8-2.4c-1-1.6-1.6-4-1.6-7
		c0-3.2,0.5-5.4,1.4-7c1-1.6,2.7-2.4,4.9-2.4c2.2,0,4,0.8,4.9,2.4c1,1.6,1.4,3.8,1.4,7C262.1,519,261.6,521.3,260.7,522.9z"/>
	<path fill="#FFFFFF" d="M285.3,524.4h-0.2c-0.6-4.3-1.1-7.8-1.7-10.3l-3.7-13.8h-8.4l8.9,31.3h9.2l5.7-24.8h0.2l3.2,13.8l2.4,11
		h9.2l9-31.3h-8.4l-3.8,13.8c-0.2,0.8-0.5,2.4-1,4.8s-0.8,4.1-1,5.6h-0.2c0-0.5-0.2-1.3-0.2-2.1c-0.2-0.8-0.3-1.7-0.5-2.7
		s-0.3-1.7-0.5-2.5s-0.3-1.4-0.3-1.7l-3.7-14.9h-9.4l-3.8,14.9l-0.5,2.4C285.7,520.8,285.4,523,285.3,524.4z"/>
	<path fill="#FFFFFF" d="M325.6,496.5c1.6,0,2.7-0.3,3.5-1.1c0.8-0.8,1.1-1.7,1.1-3c0-2.7-1.6-4.1-4.6-4.1c-3,0-4.6,1.4-4.6,4.1
		C321,495.1,322.4,496.5,325.6,496.5z"/>
	<rect x="321.3" y="500.3" fill="#FFFFFF" width="8.6" height="31.3"/>
	<path fill="#FFFFFF" d="M362.6,514c0-4.4-1.3-7.9-3.7-10.5c-2.4-2.5-5.9-3.8-10.3-3.8c-4.6,0-8.3,1.4-10.8,4.3
		c-2.5,2.9-4,6.8-4,12.1c0,5.1,1.4,9,4.3,11.7c2.9,3,6.8,4.3,11.9,4.3c2.4,0,4.4-0.2,6.2-0.5s3.3-1,4.8-1.6v-6.7
		c-1.7,0.8-3.5,1.4-5.2,1.9c-1.7,0.3-3.5,0.6-5.4,0.6c-2.4,0-4.3-0.6-5.7-2.1c-1.3-1.4-2.1-3.2-2.2-5.7h20.2V514z M342.7,512.5
		c0.2-2.2,0.8-3.8,1.7-4.9c1-1.1,2.4-1.7,4.3-1.7c1.7,0,3.2,0.6,4.3,1.7c1.1,1.1,1.6,2.7,1.6,4.9H342.7z"/>
	<path fill="#FFFFFF" d="M385.4,488.1v10c0,1.7,0.2,4,0.6,6.2h-0.3c-1.9-3-4.9-4.4-8.9-4.4c-3.8,0-6.7,1.4-8.7,4.3
		c-2.1,2.9-3.2,6.8-3.2,11.9s1.1,9,3.2,11.9s4.9,4.3,8.6,4.3c4,0,7-1.6,8.9-4.6h0.3l1.6,4h6.5v-43.5H385.4z M386.2,517h-0.2
		c-0.2,3-0.6,5.2-1.6,6.5c-1,1.3-2.5,1.9-4.8,1.9c-1.9,0-3.5-0.8-4.6-2.4c-1.1-1.6-1.6-3.8-1.6-7c0-3,0.5-5.4,1.6-7
		c1.1-1.6,2.5-2.4,4.4-2.4c2.4,0,4,0.8,5.1,2.2c1.1,1.4,1.6,3.8,1.6,7.1V517z"/>
	<polygon fill="#FFFFFF" points="421.3,505.9 421.3,500.3 398,500.3 398,506.8 411.6,506.8 397.2,526.5 397.2,531.6 421.8,531.6 
		421.8,525.1 407.2,525.1 	"/>
	<rect x="425.1" y="500.3" fill="#FFFFFF" width="8.6" height="31.3"/>
	<path fill="#FFFFFF" d="M429.4,488.1c-3,0-4.6,1.4-4.6,4.1c0,2.9,1.6,4.1,4.6,4.1c1.6,0,2.7-0.3,3.5-1.1c0.8-0.8,1.1-1.7,1.1-3
		C434,489.5,432.4,488.1,429.4,488.1z"/>
	<path fill="#FFFFFF" d="M466.4,514c0-4.4-1.3-7.9-3.7-10.5c-2.4-2.4-5.7-3.7-10.2-3.7c-4.6,0-8.3,1.4-10.8,4.3
		c-2.5,2.9-4,6.8-4,12.1c0,5.1,1.4,9,4.3,11.7s6.8,4.1,11.7,4.1c2.4,0,4.4-0.2,6.2-0.5c1.7-0.3,3.3-1,4.8-1.6v-6.7
		c-1.7,0.8-3.5,1.4-5.2,1.9c-1.7,0.3-3.5,0.6-5.4,0.6c-2.4,0-4.3-0.6-5.7-2.1c-1.3-1.4-2.1-3.2-2.2-5.7h20.2V514z M446.5,512.4
		c0.2-2.1,0.8-3.7,1.7-4.9c1-1.1,2.4-1.7,4.3-1.7c1.7,0,3.2,0.6,4.3,1.7c1.1,1.1,1.6,2.7,1.6,4.9H446.5z"/>
	<path fill="#FFFFFF" d="M485,487.8c-1.1,1.9-3.3,4.6-6.5,8.4v0.8h5.7c1.3-1,3.2-2.4,5.6-4.3c2.4-1.9,4-3.3,4.9-4.3v-0.6L485,487.8
		L485,487.8z"/>
	<path fill="#FFFFFF" d="M484,506.7c1.1,0,2.4,0.2,3.5,0.5c1.1,0.3,2.4,0.8,3.8,1.3l2.5-6.5c-2.9-1.4-6-2.1-9.7-2.1
		c-4.9,0-8.7,1.4-11.4,4.1c-2.7,2.9-4,6.8-4,12.2c0,10.6,4.9,16,14.6,16c2.1,0,4-0.2,5.2-0.5c1.4-0.3,2.9-1,4.1-1.7v-7.3
		c-1.4,1-2.9,1.6-4.1,2.1c-1.4,0.5-2.9,0.6-4.6,0.6c-4.4,0-6.7-3-6.7-9.2C477.3,509.8,479.6,506.7,484,506.7z"/>
	<path fill="#FFFFFF" d="M195.1,584c-1.1-0.8-2.9-1.7-5.4-2.7c-2.7-1.1-4.4-1.9-5.2-2.5c-0.8-0.6-1.3-1.3-1.3-1.9
		c0-1.4,1.3-2.1,3.8-2.1c1.4,0,2.9,0.2,4.1,0.6c1.4,0.5,2.9,1,4.4,1.6l2.5-6.2c-3.5-1.6-7.1-2.4-11-2.4c-4,0-7,0.8-9.2,2.2
		c-2.2,1.6-3.2,3.7-3.2,6.5c0,1.6,0.3,3,0.8,4.1c0.5,1.1,1.3,2.1,2.4,3c1.1,0.8,2.9,1.7,5.2,2.9c1.7,0.6,3,1.3,4,1.9
		c1,0.5,1.7,1,2.1,1.4c0.5,0.5,0.6,1,0.6,1.6c0,1.7-1.6,2.7-4.6,2.7c-1.4,0-3.2-0.3-5.2-0.8c-1.9-0.5-3.8-1.1-5.4-1.9v7
		c1.4,0.6,2.9,1.1,4.4,1.4c1.6,0.3,3.5,0.5,5.9,0.5c4.4,0,7.8-0.8,10-2.5c2.2-1.7,3.3-4.1,3.3-7.3c0-1.6-0.3-2.9-0.8-4
		C197,585.7,196.2,584.8,195.1,584z"/>
	<path fill="#FFFFFF" d="M206.5,556.7c-3,0-4.6,1.4-4.6,4.1c0,2.9,1.6,4.1,4.6,4.1c1.6,0,2.7-0.3,3.5-1.1s1.1-1.7,1.1-3
		C211.1,558.1,209.5,556.7,206.5,556.7z"/>
	<rect x="202.2" y="568.9" fill="#FFFFFF" width="8.6" height="31.3"/>
	<path fill="#FFFFFF" d="M243.5,582.4c0-4.4-1.3-7.9-3.7-10.5c-2.4-2.4-5.9-3.5-10.2-3.5c-4.6,0-8.3,1.4-10.8,4.3s-4,6.8-4,12.1
		c0,5.1,1.4,9,4.3,11.7c2.9,2.7,6.8,4.1,11.7,4.1c0.5,0,1,0,1.4,0c-1.3,1-2.1,1.9-2.5,2.7c-0.6,1.1-1.1,2.2-1.1,3.5
		c0,1.9,0.6,3.5,1.9,4.6c1.3,1.1,3,1.7,5.1,1.7c1.4,0,2.9-0.2,4.3-0.6v-4.9c-1.1,0.3-2.2,0.5-3.2,0.5c-0.6,0-1.1-0.2-1.6-0.6
		c-0.5-0.3-0.6-1-0.6-1.7c0-1,0.3-1.9,1.1-3c0.6-1,1.6-2.1,2.9-3.2c1.1-0.3,2.4-0.8,3.3-1.3v-6.5c-1.7,0.8-3.7,1.4-5.2,1.9
		c-1.7,0.3-3.5,0.6-5.4,0.6c-2.4,0-4.3-0.6-5.7-2.1c-1.3-1.4-2.1-3.2-2.2-5.7h20.2V582.4z M223.7,581c0.2-2.1,0.8-3.7,1.7-4.9
		c1-1.1,2.4-1.7,4.3-1.7c1.7,0,3.2,0.6,4.3,1.7c1.1,1.1,1.6,2.7,1.6,4.9H223.7z"/>
	<path fill="#FFFFFF" d="M291.4,582.7c-0.2,0.8-0.5,2.4-1,4.8c-0.5,2.4-0.8,4.1-1,5.6h-0.2c0-0.5-0.2-1.3-0.2-2.1
		c-0.2-0.8-0.3-1.7-0.5-2.7s-0.3-1.7-0.5-2.5s-0.3-1.4-0.3-1.7l-3.7-14.9h-9.4l-3.8,14.9l-0.5,2.4c-0.6,3-1,5.2-1,6.7h-0.2
		c-0.6-4.3-1.1-7.8-1.7-10.3l-3.7-13.8h-8.4l8.9,31.3h9.2l5.7-24.8h0.2l3.2,13.8l2.4,11h9.2l9-31.3h-8.3L291.4,582.7z"/>
	<rect x="305.7" y="568.9" fill="#FFFFFF" width="8.6" height="31.3"/>
	<path fill="#FFFFFF" d="M310,556.7c-3,0-4.6,1.4-4.6,4.1c0,2.9,1.6,4.1,4.6,4.1c1.6,0,2.7-0.3,3.5-1.1s1.1-1.7,1.1-3
		C314.6,558.1,313,556.7,310,556.7z"/>
	<path fill="#FFFFFF" d="M347,582.4c0-4.4-1.3-7.9-3.7-10.5c-2.4-2.4-5.7-3.5-10.2-3.5c-4.6,0-8.3,1.4-10.8,4.3
		c-2.5,2.9-4,6.8-4,12.1c0,5.1,1.4,9,4.3,11.7s6.8,4.1,11.7,4.1c0.5,0,1,0,1.4,0c-1.3,1-2.1,1.9-2.5,2.7c-0.6,1.1-1.1,2.2-1.1,3.5
		c0,1.9,0.6,3.5,1.9,4.6c1.3,1.1,3,1.7,5.1,1.7c1.4,0,2.9-0.2,4.3-0.6v-4.9c-1.1,0.3-2.2,0.5-3.2,0.5c-0.6,0-1.1-0.2-1.6-0.6
		c-0.5-0.3-0.6-1-0.6-1.7c0-1,0.3-1.9,1.1-3c0.6-1,1.6-2.1,2.9-3.2c1.1-0.3,2.4-0.8,3.3-1.3v-6.5c-1.7,0.8-3.7,1.4-5.2,1.9
		c-1.7,0.3-3.5,0.6-5.4,0.6c-2.4,0-4.3-0.6-5.7-2.1c-1.3-1.4-2.1-3.2-2.2-5.7H347V582.4z M327.2,581c0.2-2.1,0.8-3.7,1.7-4.9
		c1-1.1,2.4-1.7,4.3-1.7c1.7,0,3.2,0.6,4.3,1.7c1.1,1.1,1.6,2.7,1.6,4.9H327.2z"/>
	<path fill="#FFFFFF" d="M364.6,575.2c1.1,0,2.4,0.2,3.5,0.5c1.1,0.3,2.4,0.8,3.8,1.3l2.5-6.5c-2.9-1.4-6-2.1-9.7-2.1
		c-4.9,0-8.7,1.4-11.4,4.1c-2.7,2.9-4,6.8-4,12.2c0,10.6,4.9,16,14.6,16c2.1,0,4-0.2,5.2-0.5c1.4-0.3,2.9-1,4.1-1.7v-7.3
		c-1.4,1-2.9,1.6-4.1,2.1c-1.4,0.5-2.9,0.6-4.6,0.6c-4.4,0-6.7-3-6.7-9.2C358,578.4,360.2,575.2,364.6,575.2z"/>
	<g>
		<path fill="#FFFFFF" d="M402.7,591.9L402.7,591.9c0.1,0,0.1,0,0.2,0H402.7z"/>
		<path fill="#FFFFFF" d="M404.5,582.5c0-4.4-1.3-7.9-3.7-10.5s-5.9-3.8-10.3-3.8c-4.6,0-8.3,1.4-10.8,4.3c-2.5,2.9-4,6.8-4,12.1
			c0,5.1,1.4,9,4.3,11.7c2.9,2.7,6.8,4.1,11.7,4.1c2.4,0,4.4-0.2,6.2-0.5c1.7-0.3,3.3-1,4.8-1.6V592c-1.7,0.8-3.5,1.4-5.1,1.8
			c-1.6,0.5-3.5,0.6-5.4,0.6c-2.4,0-4.3-0.6-5.7-2.1c-1.3-1.4-2.1-3.2-2.2-5.7h20.2V582.5z M384.6,581.1c0.2-2.2,0.8-3.8,1.7-4.9
			c1-1.1,2.4-1.7,4.3-1.7c1.7,0,3.2,0.6,4.3,1.7c1.1,1.1,1.6,2.7,1.6,4.9H384.6z"/>
	</g>
	<path fill="#FFFFFF" d="M408.6,602.2c0,1.6-0.3,2.7-1,3.5c-0.6,0.8-1.7,1.3-3.2,1.3c-1.4,0-2.7-0.2-4-0.5v6.7
		c1.6,0.5,3.5,0.6,5.6,0.6c3.5,0,6.2-1,8.1-2.7c1.9-1.7,2.9-4.3,2.9-7.6v-34.6h-8.6v33.3H408.6z"/>
	<path fill="#FFFFFF" d="M412.9,556.7c-3,0-4.6,1.4-4.6,4.1c0,2.9,1.6,4.1,4.6,4.1c1.6,0,2.7-0.3,3.5-1.1s1.1-1.7,1.1-3
		C417.5,558.1,416.1,556.7,412.9,556.7z"/>
	<g>
		<g>
			<path fill="#FFFFFF" d="M295.6,271.9c-2.1-8.3-0.3-26.2,21.6-34.6c5.7-2.2,9-4.9,10-8.3c1.6-5.4-3.2-11.7-5.6-14.9
				c-1.4-1.9-2.4-3.2-1.7-4.9l6,2.1c0.3-1,0-1.9-0.2-2.2c0.2,0.2,0.6,0.8,1,1.3c2.9,4,8.9,12.1,6.5,20.5c-1.6,5.4-6.2,9.5-13.8,12.4
				c-22.1,8.4-17.8,26.4-17.6,27.1L295.6,271.9z"/>
		</g>
		<g>
			<g>
				<path fill="#FFFFFF" d="M298.1,264.4c-24.4,0-44.4,27.6-44.4,61.8c0,34,20,61.8,44.4,61.8c24.4,0,44.4-27.6,44.4-61.8
					S322.6,264.4,298.1,264.4z M298.1,271.7c19.4,0,35.2,21.9,36.8,49.5h-73.8C262.7,293.6,278.7,271.7,298.1,271.7z M298.1,380.5
					c-19.8,0-36-22.9-37-51.6h74C334.2,357.4,317.8,380.5,298.1,380.5z M298.1,277.4c-6.7,0-11.6,8.3-11.6,19c0,10.8,4.9,19,11.6,19
					c6.7,0,11.6-8.3,11.6-19C309.7,285.5,304.6,277.4,298.1,277.4z M298.1,308.1c-1.3,0-4.1-4.4-4.1-11.6c0-7.3,2.9-11.6,4.1-11.6
					s4.1,4.4,4.1,11.6C302.2,303.6,299.4,308.1,298.1,308.1z"/>
			</g>
		</g>
	</g>
	<path fill="#FFFFFF" d="M297.6,123.3C133.2,123.3,0,256.5,0,420.9s133.2,297.6,297.6,297.6s297.6-133.2,297.6-297.6
		S462.1,123.3,297.6,123.3z M297.6,707C139.7,707,11.6,578.9,11.6,420.9s128.1-286.1,286.1-286.1S583.7,263,583.7,420.9
		S455.6,707,297.6,707z"/>
</g>
</svg>
