<?xml version="1.0" encoding="utf-8"?>
<!-- Generator: Adobe Illustrator 18.1.0, SVG Export Plug-In . SVG Version: 6.00 Build 0)  -->
<!DOCTYPE svg PUBLIC "-//W3C//DTD SVG 1.1//EN" "http://www.w3.org/Graphics/SVG/1.1/DTD/svg11.dtd">
<svg version="1.1" id="Layer_1" xmlns="http://www.w3.org/2000/svg" xmlns:xlink="http://www.w3.org/1999/xlink" x="0px" y="0px"
	 viewBox="0 0 375 375" enable-background="new 0 0 375 375" xml:space="preserve">
<g>
	<g>
		<g>
			<g>
				<path fill="#FFFFFF" d="M135.7,203.9c0.7,0.5,1.8,1.1,3.3,1.8c1.1,0.4,1.9,0.8,2.5,1.2c0.6,0.3,1.1,0.6,1.3,0.9
					c0.3,0.3,0.4,0.6,0.4,1c0,1.1-1,1.7-2.9,1.7c-0.9,0-2-0.2-3.3-0.5c-1.2-0.3-2.4-0.7-3.4-1.2v4.4c0.9,0.4,1.8,0.7,2.8,0.9
					c1,0.2,2.2,0.3,3.7,0.3c2.8,0,4.9-0.5,6.3-1.6c1.4-1.1,2.1-2.6,2.1-4.6c0-1-0.2-1.8-0.5-2.5c-0.3-0.7-0.9-1.3-1.6-1.9
					c-0.7-0.5-1.8-1.1-3.4-1.7c-1.7-0.7-2.8-1.2-3.3-1.6c-0.5-0.4-0.8-0.8-0.8-1.2c0-0.9,0.8-1.3,2.4-1.3c0.9,0,1.8,0.1,2.6,0.4
					c0.9,0.3,1.8,0.6,2.8,1l1.6-3.9c-2.2-1-4.5-1.5-6.9-1.5c-2.5,0-4.4,0.5-5.8,1.4c-1.4,1-2,2.3-2,4.1c0,1,0.2,1.9,0.5,2.6
					C134.5,202.7,135,203.3,135.7,203.9z M159,214.3c1.3,0,2.5-0.1,3.3-0.3c0.9-0.2,1.8-0.6,2.6-1.1v-4.6c-0.9,0.6-1.8,1-2.6,1.3
					c-0.9,0.3-1.8,0.4-2.9,0.4c-2.8,0-4.2-1.9-4.2-5.8c0-4,1.4-5.9,4.2-5.9c0.7,0,1.5,0.1,2.2,0.3c0.7,0.2,1.5,0.5,2.4,0.8l1.6-4.1
					c-1.8-0.9-3.8-1.3-6.1-1.3c-3.1,0-5.5,0.9-7.2,2.6c-1.7,1.8-2.5,4.3-2.5,7.7C149.8,211,152.9,214.3,159,214.3z M173.1,204
					c0-1.6,0.5-2.8,1.4-3.7c1-0.9,2.3-1.3,4-1.3c0.6,0,1.1,0.1,1.6,0.2l0.4-5c-0.5-0.1-1.1-0.2-1.8-0.2c-1.2,0-2.3,0.3-3.4,1
					c-1,0.7-1.9,1.6-2.5,2.7h-0.3l-0.8-3.3h-4.1V214h5.4V204z M185.5,213.1c1.4,0.8,3.1,1.2,5,1.2c3,0,5.4-0.9,7-2.7
					c1.7-1.8,2.5-4.3,2.5-7.5c0-2.1-0.4-3.9-1.2-5.4c-0.8-1.5-1.9-2.7-3.3-3.5c-1.4-0.8-3.1-1.2-5-1.2c-3,0-5.4,0.9-7.1,2.7
					c-1.7,1.8-2.5,4.3-2.5,7.5c0,2.1,0.4,3.9,1.2,5.4C183,211.1,184.1,212.3,185.5,213.1z M187.5,199.7c0.6-1,1.7-1.5,3.1-1.5
					c1.4,0,2.5,0.5,3.1,1.5c0.6,1,0.9,2.4,0.9,4.4c0,2-0.3,3.4-0.9,4.4c-0.6,1-1.7,1.5-3.1,1.5c-1.4,0-2.5-0.5-3.1-1.5
					c-0.6-1-1-2.5-1-4.4C186.5,202.2,186.8,200.7,187.5,199.7z M208.1,186.6h-5.4V214h5.4V186.6z M218.8,214.3
					c1.3,0,2.5-0.2,3.6-0.7c1.1-0.5,1.9-1.2,2.4-2.1h0.3l0.7,2.5h4.1v-19.7h-5.4v9.2c0,2.3-0.3,4-1,5c-0.7,1-1.8,1.5-3.3,1.5
					c-1.1,0-1.9-0.4-2.4-1.1c-0.5-0.7-0.8-1.8-0.8-3.2v-11.5h-5.4v12.8c0,2.3,0.6,4.1,1.8,5.3C214.8,213.7,216.5,214.3,218.8,214.3z
					 M236.5,191.9c1,0,1.7-0.2,2.2-0.7c0.5-0.5,0.7-1.1,0.7-1.9c0-1.7-1-2.6-2.9-2.6c-1.9,0-2.9,0.9-2.9,2.6
					C233.6,191,234.5,191.9,236.5,191.9z M228.7,222.2c1,0.3,2.2,0.4,3.5,0.4c2.2,0,3.9-0.6,5.1-1.7c1.2-1.1,1.8-2.7,1.8-4.8v-21.8
					h-5.4v21c0,1-0.2,1.7-0.6,2.2c-0.4,0.5-1.1,0.8-2,0.8c-0.9,0-1.7-0.1-2.5-0.3V222.2z M78.9,238.8c-1.4-1.1-3.4-1.7-6.1-1.7
					c-2.8,0-5.3,0.6-7.5,1.8l1.8,3.6c2.1-0.9,4-1.4,5.5-1.4c2,0,3.1,1,3.1,3v0.9l-3.4,0.1c-2.9,0.1-5.1,0.7-6.6,1.6
					c-1.5,1-2.2,2.5-2.2,4.6c0,2,0.5,3.5,1.6,4.6c1.1,1.1,2.6,1.6,4.5,1.6c1.5,0,2.8-0.2,3.7-0.7c1-0.4,1.9-1.2,2.8-2.4h0.1l1,2.7
					H81v-13.1C81,241.7,80.3,240,78.9,238.8z M75.6,249.7c0,1.2-0.4,2.1-1.1,2.8c-0.7,0.7-1.7,1.1-3,1.1c-1.7,0-2.6-0.8-2.6-2.3
					c0-1.1,0.4-1.8,1.1-2.4c0.8-0.5,1.9-0.8,3.5-0.8l2.1-0.1V249.7z M95.6,237.2c-2.5,0-4.3,1-5.6,2.9h-0.2c0.1-1.8,0.2-3.1,0.2-3.9
					v-6.4h-5.4v27.4h4.1l0.9-2.2H90c1.3,1.7,3.1,2.5,5.4,2.5c2.3,0,4.2-0.9,5.5-2.7c1.4-1.8,2-4.3,2-7.5c0-3.2-0.7-5.6-2-7.4
					C99.8,238.1,97.9,237.2,95.6,237.2z M96.6,251.7c-0.7,1-1.5,1.5-2.6,1.5c-1.4,0-2.4-0.5-3-1.4c-0.6-0.9-0.9-2.4-0.9-4.5v-0.6
					c0-1.9,0.3-3.2,0.9-4c0.6-0.8,1.6-1.2,2.9-1.2c1.1,0,2,0.5,2.7,1.5c0.7,1,1,2.4,1,4.4C97.6,249.2,97.2,250.7,96.6,251.7z
					 M115,259.7l8.3-22.2h-5.7l-3.6,11.1c-0.4,1.1-0.6,2.2-0.8,3.4h-0.1c-0.1-1.3-0.3-2.4-0.7-3.4l-3.7-11.1h-5.9l7.8,19.5l-0.3,1
					c-0.4,1.2-1,2-1.7,2.6c-0.7,0.6-1.5,0.9-2.5,0.9c-0.8,0-1.5-0.1-2.1-0.2v4.3c0.9,0.2,1.8,0.3,2.7,0.3c1.9,0,3.5-0.5,4.9-1.5
					C113.2,263.3,114.3,261.7,115,259.7z M143.7,254.6h0.2l1,2.5h4.1v-27.4h-5.4v6.3c0,1.1,0.1,2.5,0.4,3.9h-0.2
					c-1.3-1.9-3.2-2.9-5.7-2.9c-2.4,0-4.2,0.9-5.5,2.7c-1.3,1.8-2,4.3-2,7.5c0,3.2,0.7,5.7,2,7.5c1.3,1.8,3.1,2.7,5.4,2.7
					C140.6,257.5,142.5,256.6,143.7,254.6z M137.1,251.8c-0.7-1-1-2.4-1-4.4c0-1.9,0.3-3.4,1-4.4c0.7-1,1.6-1.5,2.8-1.5
					c1.5,0,2.5,0.5,3.2,1.4c0.7,0.9,1,2.4,1,4.5v0.6c-0.1,1.9-0.4,3.3-1,4.1c-0.6,0.8-1.6,1.2-3,1.2
					C138.8,253.3,137.8,252.8,137.1,251.8z M168.2,254.8c1.7-1.8,2.5-4.3,2.5-7.5c0-2.1-0.4-3.9-1.2-5.4c-0.8-1.5-1.9-2.7-3.3-3.5
					c-1.4-0.8-3.1-1.2-5-1.2c-3,0-5.4,0.9-7.1,2.7c-1.7,1.8-2.5,4.3-2.5,7.5c0,2.1,0.4,3.9,1.2,5.4c0.8,1.5,1.9,2.7,3.3,3.6
					c1.4,0.8,3.1,1.2,5,1.2C164.2,257.5,166.5,256.6,168.2,254.8z M158.1,251.7c-0.6-1-1-2.5-1-4.4c0-2,0.3-3.4,0.9-4.4
					c0.6-1,1.7-1.5,3.1-1.5c1.4,0,2.5,0.5,3.1,1.5c0.6,1,0.9,2.4,0.9,4.4c0,2-0.3,3.4-0.9,4.4c-0.6,1-1.7,1.5-3.1,1.5
					C159.8,253.2,158.7,252.7,158.1,251.7z M179.7,252.7h-0.1c-0.4-2.7-0.7-4.9-1.1-6.5l-2.3-8.7h-5.3l5.6,19.7h5.8l3.6-15.6h0.1
					l2,8.7l1.5,6.9h5.8l5.7-19.7h-5.3l-2.4,8.7c-0.1,0.5-0.3,1.5-0.6,3c-0.3,1.5-0.5,2.6-0.6,3.5h-0.1c0-0.3-0.1-0.8-0.1-1.3
					c-0.1-0.5-0.2-1.1-0.3-1.7c-0.1-0.6-0.2-1.1-0.3-1.6c-0.1-0.5-0.2-0.9-0.2-1.1l-2.3-9.4h-5.9l-2.4,9.4l-0.3,1.5
					C180,250.4,179.8,251.8,179.7,252.7z M205.1,235.1c1,0,1.7-0.2,2.2-0.7c0.5-0.5,0.7-1.1,0.7-1.9c0-1.7-1-2.6-2.9-2.6
					c-1.9,0-2.9,0.9-2.9,2.6C202.2,234.2,203.1,235.1,205.1,235.1z M202.4,257.2h5.4v-19.7h-5.4V257.2z M220.5,257.5
					c1.5,0,2.8-0.1,3.9-0.3c1.1-0.2,2.1-0.6,3-1V252c-1.1,0.5-2.2,0.9-3.3,1.2c-1.1,0.2-2.2,0.4-3.4,0.4c-1.5,0-2.7-0.4-3.6-1.3
					c-0.8-0.9-1.3-2-1.4-3.6h12.7v-2.6c0-2.8-0.8-5-2.3-6.6c-1.5-1.6-3.7-2.4-6.5-2.4c-2.9,0-5.2,0.9-6.8,2.7
					c-1.6,1.8-2.5,4.3-2.5,7.6c0,3.2,0.9,5.7,2.7,7.4C214.8,256.7,217.3,257.5,220.5,257.5z M217,242.1c0.6-0.7,1.5-1.1,2.7-1.1
					c1.1,0,2,0.4,2.7,1.1c0.7,0.7,1,1.7,1,3.1h-7.5C216,243.8,216.4,242.8,217,242.1z M237.4,237.2c-2.4,0-4.2,0.9-5.5,2.7
					c-1.3,1.8-2,4.3-2,7.5c0,3.2,0.7,5.7,2,7.5c1.3,1.8,3.1,2.7,5.4,2.7c2.5,0,4.4-1,5.6-2.9h0.2l1,2.5h4.1v-27.4h-5.4v6.3
					c0,1.1,0.1,2.5,0.4,3.9h-0.2C241.8,238.1,239.9,237.2,237.4,237.2z M243.2,248c-0.1,1.9-0.4,3.3-1,4.1c-0.6,0.8-1.6,1.2-3,1.2
					c-1.2,0-2.2-0.5-2.9-1.5c-0.7-1-1-2.4-1-4.4c0-1.9,0.3-3.4,1-4.4c0.7-1,1.6-1.5,2.8-1.5c1.5,0,2.5,0.5,3.2,1.4
					c0.7,0.9,1,2.4,1,4.5V248z M265.4,241v-3.5h-14.7v4.1h8.6l-9.1,12.4v3.2h15.5v-4.1h-9.2L265.4,241z M267.8,257.2h5.4v-19.7h-5.4
					V257.2z M270.5,229.8c-1.9,0-2.9,0.9-2.9,2.6c0,1.8,1,2.6,2.9,2.6c1,0,1.7-0.2,2.2-0.7c0.5-0.5,0.7-1.1,0.7-1.9
					C273.4,230.7,272.4,229.8,270.5,229.8z M285.1,237.2c-2.9,0-5.2,0.9-6.8,2.7c-1.6,1.8-2.5,4.3-2.5,7.6c0,3.2,0.9,5.7,2.7,7.4
					c1.8,1.7,4.3,2.6,7.4,2.6c1.5,0,2.8-0.1,3.9-0.3c1.1-0.2,2.1-0.6,3-1V252c-1.1,0.5-2.2,0.9-3.3,1.2c-1.1,0.2-2.2,0.4-3.4,0.4
					c-1.5,0-2.7-0.4-3.6-1.3c-0.8-0.9-1.3-2-1.4-3.6h12.7v-2.6c0-2.8-0.8-5-2.3-6.6C290,238,287.9,237.2,285.1,237.2z M281.3,245.1
					c0.1-1.3,0.5-2.3,1.1-3.1c0.6-0.7,1.5-1.1,2.7-1.1c1.1,0,2,0.4,2.7,1.1c0.7,0.7,1,1.7,1,3.1H281.3z M305.5,229.6
					c-0.7,1.2-2.1,2.9-4.1,5.3v0.5h3.6c0.8-0.6,2-1.5,3.5-2.7c1.5-1.2,2.5-2.1,3.1-2.7v-0.4H305.5z M304.9,241.5
					c0.7,0,1.5,0.1,2.2,0.3c0.7,0.2,1.5,0.5,2.4,0.8l1.6-4.1c-1.8-0.9-3.8-1.3-6.1-1.3c-3.1,0-5.5,0.9-7.2,2.6
					c-1.7,1.8-2.5,4.3-2.5,7.7c0,6.7,3.1,10.1,9.2,10.1c1.3,0,2.5-0.1,3.3-0.3c0.9-0.2,1.8-0.6,2.6-1.1v-4.6c-0.9,0.6-1.8,1-2.6,1.3
					c-0.9,0.3-1.8,0.4-2.9,0.4c-2.8,0-4.2-1.9-4.2-5.8C300.7,243.5,302.1,241.5,304.9,241.5z M122.9,290.2c-0.7-0.5-1.8-1.1-3.4-1.7
					c-1.7-0.7-2.8-1.2-3.3-1.6c-0.5-0.4-0.8-0.8-0.8-1.2c0-0.9,0.8-1.3,2.4-1.3c0.9,0,1.8,0.1,2.6,0.4c0.9,0.3,1.8,0.6,2.8,1
					l1.6-3.9c-2.2-1-4.5-1.5-6.9-1.5c-2.5,0-4.4,0.5-5.8,1.4c-1.4,1-2,2.3-2,4.1c0,1,0.2,1.9,0.5,2.6c0.3,0.7,0.8,1.3,1.5,1.9
					c0.7,0.5,1.8,1.1,3.3,1.8c1.1,0.4,1.9,0.8,2.5,1.2c0.6,0.3,1.1,0.6,1.3,0.9c0.3,0.3,0.4,0.6,0.4,1c0,1.1-1,1.7-2.9,1.7
					c-0.9,0-2-0.2-3.3-0.5c-1.2-0.3-2.4-0.7-3.4-1.2v4.4c0.9,0.4,1.8,0.7,2.8,0.9c1,0.2,2.2,0.3,3.7,0.3c2.8,0,4.9-0.5,6.3-1.6
					c1.4-1.1,2.1-2.6,2.1-4.6c0-1-0.2-1.8-0.5-2.5C124.1,291.3,123.6,290.7,122.9,290.2z M130.1,273c-1.9,0-2.9,0.9-2.9,2.6
					c0,1.8,1,2.6,2.9,2.6c1,0,1.7-0.2,2.2-0.7c0.5-0.5,0.7-1.1,0.7-1.9C133,273.9,132,273,130.1,273z M127.4,300.4h5.4v-19.7h-5.4
					V300.4z M144.7,280.4c-2.9,0-5.2,0.9-6.8,2.7c-1.6,1.8-2.5,4.3-2.5,7.6c0,3.2,0.9,5.7,2.7,7.4c1.8,1.7,4.3,2.6,7.4,2.6
					c0.3,0,0.6,0,0.9,0c-0.8,0.6-1.3,1.2-1.6,1.7c-0.4,0.7-0.7,1.4-0.7,2.2c0,1.2,0.4,2.2,1.2,2.9c0.8,0.7,1.9,1.1,3.2,1.1
					c0.9,0,1.8-0.1,2.7-0.4v-3.1c-0.7,0.2-1.4,0.3-2,0.3c-0.4,0-0.7-0.1-1-0.4c-0.3-0.2-0.4-0.6-0.4-1.1c0-0.6,0.2-1.2,0.7-1.9
					c0.4-0.6,1-1.3,1.8-2c0.7-0.2,1.5-0.5,2.1-0.8v-4.1c-1.1,0.5-2.3,0.9-3.3,1.2c-1.1,0.2-2.2,0.4-3.4,0.4c-1.5,0-2.7-0.4-3.6-1.3
					c-0.8-0.9-1.3-2-1.4-3.6h12.7v-2.6c0-2.8-0.8-5-2.3-6.6C149.6,281.1,147.4,280.4,144.7,280.4z M140.9,288.3
					c0.1-1.3,0.5-2.3,1.1-3.1c0.6-0.7,1.5-1.1,2.7-1.1c1.1,0,2,0.4,2.7,1.1c0.7,0.7,1,1.7,1,3.1H140.9z M183.6,289.4
					c-0.1,0.5-0.3,1.5-0.6,3c-0.3,1.5-0.5,2.6-0.6,3.5h-0.1c0-0.3-0.1-0.8-0.1-1.3c-0.1-0.5-0.2-1.1-0.3-1.7
					c-0.1-0.6-0.2-1.1-0.3-1.6c-0.1-0.5-0.2-0.9-0.2-1.1l-2.3-9.4h-5.9l-2.4,9.4l-0.3,1.5c-0.4,1.9-0.6,3.3-0.6,4.2h-0.1
					c-0.4-2.7-0.7-4.9-1.1-6.5l-2.3-8.7h-5.3l5.6,19.7h5.8l3.6-15.6h0.1l2,8.7l1.5,6.9h5.8l5.7-19.7H186L183.6,289.4z M192.6,300.4
					h5.4v-19.7h-5.4V300.4z M195.3,273c-1.9,0-2.9,0.9-2.9,2.6c0,1.8,1,2.6,2.9,2.6c1,0,1.7-0.2,2.2-0.7c0.5-0.5,0.7-1.1,0.7-1.9
					C198.2,273.9,197.2,273,195.3,273z M209.9,280.4c-2.9,0-5.2,0.9-6.8,2.7c-1.6,1.8-2.5,4.3-2.5,7.6c0,3.2,0.9,5.7,2.7,7.4
					c1.8,1.7,4.3,2.6,7.4,2.6c0.3,0,0.6,0,0.9,0c-0.8,0.6-1.3,1.2-1.6,1.7c-0.4,0.7-0.7,1.4-0.7,2.2c0,1.2,0.4,2.2,1.2,2.9
					c0.8,0.7,1.9,1.1,3.2,1.1c0.9,0,1.8-0.1,2.7-0.4v-3.1c-0.7,0.2-1.4,0.3-2,0.3c-0.4,0-0.7-0.1-1-0.4c-0.3-0.2-0.4-0.6-0.4-1.1
					c0-0.6,0.2-1.2,0.7-1.9c0.4-0.6,1-1.3,1.8-2c0.7-0.2,1.5-0.5,2.1-0.8v-4.1c-1.1,0.5-2.3,0.9-3.3,1.2c-1.1,0.2-2.2,0.4-3.4,0.4
					c-1.5,0-2.7-0.4-3.6-1.3c-0.8-0.9-1.3-2-1.4-3.6h12.7v-2.6c0-2.8-0.8-5-2.3-6.6C214.8,281.1,212.7,280.4,209.9,280.4z
					 M206.1,288.3c0.1-1.3,0.5-2.3,1.1-3.1c0.6-0.7,1.5-1.1,2.7-1.1c1.1,0,2,0.4,2.7,1.1c0.7,0.7,1,1.7,1,3.1H206.1z M229.7,284.7
					c0.7,0,1.5,0.1,2.2,0.3c0.7,0.2,1.5,0.5,2.4,0.8l1.6-4.1c-1.8-0.9-3.8-1.3-6.1-1.3c-3.1,0-5.5,0.9-7.2,2.6
					c-1.7,1.8-2.5,4.3-2.5,7.7c0,6.7,3.1,10.1,9.2,10.1c1.3,0,2.5-0.1,3.3-0.3c0.9-0.2,1.8-0.6,2.6-1.1v-4.6c-0.9,0.6-1.8,1-2.6,1.3
					c-0.9,0.3-1.8,0.4-2.9,0.4c-2.8,0-4.2-1.9-4.2-5.8C225.5,286.7,226.9,284.7,229.7,284.7z M253.8,295.2c-1.1,0.5-2.3,0.9-3.3,1.2
					s-2.2,0.4-3.4,0.4c-1.5,0-2.7-0.4-3.6-1.3c-0.8-0.9-1.3-2-1.4-3.6h12.7v-2.6c0-2.8-0.8-5-2.3-6.6c-1.5-1.6-3.7-2.4-6.5-2.4
					c-2.9,0-5.2,0.9-6.8,2.7c-1.6,1.8-2.5,4.3-2.5,7.6c0,3.2,0.9,5.7,2.7,7.4c1.8,1.7,4.3,2.6,7.4,2.6c1.5,0,2.8-0.1,3.9-0.3
					c1.1-0.2,2.1-0.6,3-1V295.2z M243.4,285.3c0.6-0.7,1.5-1.1,2.7-1.1c1.1,0,2,0.4,2.7,1.1c0.7,0.7,1,1.7,1,3.1h-7.5
					C242.4,287,242.8,286,243.4,285.3z M257.4,301.7c0,1-0.2,1.7-0.6,2.2c-0.4,0.5-1.1,0.8-2,0.8c-0.9,0-1.7-0.1-2.5-0.3v4.2
					c1,0.3,2.2,0.4,3.5,0.4c2.2,0,3.9-0.6,5.1-1.7c1.2-1.1,1.8-2.7,1.8-4.8v-21.8h-5.4V301.7z M260.1,273c-1.9,0-2.9,0.9-2.9,2.6
					c0,1.8,1,2.6,2.9,2.6c1,0,1.7-0.2,2.2-0.7c0.5-0.5,0.7-1.1,0.7-1.9C263,273.9,262.1,273,260.1,273z"/>
			</g>
		</g>
		<g>
			<g>
				<path fill="#FFFFFF" d="M186.2,93.6c-1.3-5.2-0.2-16.5,13.6-21.8c3.6-1.4,5.7-3.1,6.3-5.2c1-3.4-2-7.4-3.5-9.4
					c-0.9-1.2-1.5-2-1.1-3.1l3.8,1.3c0.2-0.6,0-1.2-0.1-1.4c0.1,0.1,0.4,0.5,0.6,0.8c1.8,2.5,5.6,7.6,4.1,12.9c-1,3.4-3.9,6-8.7,7.8
					c-13.9,5.3-11.2,16.6-11.1,17.1L186.2,93.6z"/>
			</g>
			<g>
				<g>
					<path fill="#FFFFFF" d="M187.8,88.9c-15.4,0-28,17.4-28,38.9c0,21.4,12.6,38.9,28,38.9c15.4,0,28-17.4,28-38.9
						C215.8,106.3,203.2,88.9,187.8,88.9z M187.8,93.5c12.2,0,22.2,13.8,23.2,31.2l-46.5,0C165.5,107.3,175.6,93.5,187.8,93.5z
						 M187.8,162c-12.5,0-22.7-14.4-23.3-32.5l46.6,0C210.5,147.5,200.2,162,187.8,162z M187.8,97.1c-4.2,0-7.3,5.2-7.3,12
						c0,6.8,3.1,12,7.3,12c4.2,0,7.3-5.2,7.3-12C195.1,102.2,191.9,97.1,187.8,97.1z M187.8,116.4c-0.8,0-2.6-2.8-2.6-7.3
						c0-4.6,1.8-7.3,2.6-7.3c0.8,0,2.6,2.8,2.6,7.3C190.4,113.6,188.6,116.4,187.8,116.4z"/>
				</g>
			</g>
		</g>
	</g>
	<path fill="#FFFFFF" d="M187.5,0C83.9,0,0,83.9,0,187.5S83.9,375,187.5,375S375,291.1,375,187.5S291.1,0,187.5,0z M187.5,367.7
		C88,367.7,7.3,287,7.3,187.5S88,7.3,187.5,7.3S367.7,88,367.7,187.5S287,367.7,187.5,367.7z"/>
</g>
</svg>
