<?xml version="1.0" encoding="utf-8"?>
<!-- Generator: Adobe Illustrator 18.1.0, SVG Export Plug-In . SVG Version: 6.00 Build 0)  -->
<!DOCTYPE svg PUBLIC "-//W3C//DTD SVG 1.1//EN" "http://www.w3.org/Graphics/SVG/1.1/DTD/svg11.dtd">
<svg version="1.1" id="Layer" xmlns="http://www.w3.org/2000/svg" xmlns:xlink="http://www.w3.org/1999/xlink" x="0px" y="0px"
	 viewBox="0 0 136.2 368.9" enable-background="new 0 0 136.2 368.9" xml:space="preserve">
<g>
	
		<radialGradient id="SVGID_1_" cx="1586.126" cy="2631.7856" r="1" gradientTransform="matrix(16.2022 2.8968 -2.8968 16.2022 -17959.25 -46951.5859)" gradientUnits="userSpaceOnUse">
		<stop  offset="0" style="stop-color:#FDD1A7"/>
		<stop  offset="0.4858" style="stop-color:#FDCEA2"/>
		<stop  offset="1" style="stop-color:#FDC695"/>
	</radialGradient>
	<path fill="url(#SVGID_1_)" d="M116.4,304.2c-1.2,0.4-11.4-4-12-5.1c-0.5-0.9,2.1-10.7,3.2-15.1c-1.5-1.3-3.2-2.9-3.4-3.3
		c-0.2-0.6,2.9-10.8,4.6-14.3c0.2-1.8,0.5-3.2,0.9-3.4c1.4-1,15.5,2.7,16.6,4c1.1,1.3,1.5,16.7,1.1,18.5
		C127.1,287.2,117.6,303.8,116.4,304.2z"/>
	<path fill="#5B4B59" d="M98.2,252.3l11.9-1.5c0,0,0.1,0.5,0.2,1.4c0.1,0.9,0.3,2.1,0.4,3.6c0.2,1.6,0.4,3.5,0.5,5.6
		c0.2,2.2,0.4,4.6,0.5,7.3c0.2,2.7,0.3,5.6,0.4,8.6c0.1,3.1,0.1,6.3,0.2,9.6c0,1.7,0,3.4-0.1,5.1c0,0.9,0,1.7,0,2.6
		c0,0.9-0.1,1.7-0.1,2.6c-0.1,1.8-0.1,3.5-0.2,5.3c-0.1,1.8-0.2,3.6-0.3,5.3c-0.1,1.8-0.3,3.6-0.4,5.3c-0.2,1.8-0.4,3.5-0.5,5.3
		c-0.2,1.8-0.3,3.5-0.6,5.2c-0.2,1.7-0.5,3.4-0.7,5.1c-0.3,1.7-0.4,3.3-0.7,4.9c-0.3,1.6-0.6,3.2-0.9,4.7c-0.3,1.5-0.5,3-0.8,4.4
		c-0.3,1.4-0.6,2.8-0.9,4.1c-0.6,2.6-1.1,5.1-1.7,7.2c-0.6,2.1-1.1,4-1.5,5.5c-0.9,3.1-1.4,4.8-1.4,4.8l-17.1-5.7
		c0,0,0.5-1.6,1.5-4.3c0.5-1.4,1-3.1,1.7-5c0.6-1.9,1.2-4.2,1.9-6.6c0.3-1.2,0.7-2.5,1.1-3.8c0.3-1.3,0.6-2.7,1-4.1
		c0.3-1.4,0.7-2.8,1-4.3c0.4-1.5,0.6-3,0.9-4.6c0.3-1.6,0.6-3.1,0.9-4.7c0.3-1.6,0.5-3.2,0.8-4.9c0.3-1.6,0.5-3.3,0.8-5
		c0.2-1.7,0.4-3.4,0.6-5c0.2-1.7,0.4-3.4,0.6-5c0.2-1.7,0.3-3.4,0.5-5c0.1-0.8,0.2-1.7,0.2-2.5c0.1-0.8,0.1-1.7,0.2-2.5
		c0.1-1.6,0.2-3.3,0.3-4.8c0.1-3.2,0.3-6.3,0.3-9.2c0.1-2.9,0.1-5.7,0.1-8.2c0-2.6-0.1-4.9-0.1-7c-0.1-2.1-0.1-3.9-0.2-5.3
		c-0.1-1.5-0.2-2.6-0.2-3.4C98.2,252.7,98.2,252.3,98.2,252.3z"/>
	<path fill="#231C19" d="M84.8,355.6c-1,0.3-7.5,6.7-7.5,7.3c-0.1,0.6,1.2,5.4,1.6,5.7c0.5,0.4,24.9,0.1,25.1,0
		c0.2-0.1,1.4-1.5,1.4-1.8c0.1-0.2-2.2-8.4-2.9-9C101.9,357.3,85.8,355.3,84.8,355.6z"/>
	<path fill="#5B4B59" d="M26,254.9l11.4-3.6c0,0,0.1,0.5,0.4,1.3c0.3,0.8,0.6,2,1.1,3.5c0.4,1.5,0.9,3.3,1.4,5.4
		c0.5,2.1,1.1,4.5,1.6,7.1c0.6,2.6,1.1,5.4,1.6,8.4c0.3,1.5,0.5,3,0.7,4.6c0.2,1.6,0.5,3.2,0.7,4.8c0.4,3.3,0.9,6.7,1.1,10.2
		c0.1,1.7,0.3,3.5,0.4,5.2c0.1,1.8,0.2,3.5,0.2,5.3c0.2,3.5,0.2,7.1,0.2,10.6c0.1,3.5-0.2,6.9-0.3,10.3c-0.1,3.3-0.5,6.6-0.7,9.6
		c-0.2,1.5-0.3,3-0.4,4.5c-0.2,1.4-0.4,2.8-0.6,4.1c-0.4,2.7-0.7,5.1-1.1,7.3c-0.4,2.1-0.8,4-1.1,5.6c-0.6,3.1-1,4.8-1,4.8
		l-17.4-4.6c0,0,0.4-1.6,1.1-4.3c0.4-1.4,0.8-3.1,1.3-5c0.5-1.9,0.9-4.2,1.4-6.6c0.2-1.2,0.5-2.5,0.8-3.8c0.2-1.3,0.4-2.7,0.6-4.1
		c0.4-2.8,0.9-5.7,1.2-8.8c0.3-3.1,0.7-6.3,0.8-9.5c0.2-3.3,0.4-6.6,0.4-9.9c0-1.7,0-3.3,0.1-5c0-1.7-0.1-3.3-0.1-4.9
		c0-3.3-0.3-6.5-0.5-9.6c-0.1-1.6-0.3-3.1-0.4-4.6c-0.2-1.5-0.3-3-0.5-4.4c-0.4-2.8-0.7-5.5-1.1-8c-0.4-2.5-0.8-4.7-1.2-6.7
		c-0.4-2-0.8-3.7-1.1-5.1c-0.3-1.4-0.6-2.5-0.8-3.2C26,255.2,26,254.9,26,254.9z"/>
	
		<linearGradient id="SVGID_2_" gradientUnits="userSpaceOnUse" x1="1572.5676" y1="2667.0474" x2="1573.5674" y2="2667.0474" gradientTransform="matrix(0.2847 7.5674 7.5674 -0.2847 -20562.5117 -10892.9551)">
		<stop  offset="0" style="stop-color:#3A333F"/>
		<stop  offset="8.885670e-02" style="stop-color:#433A46"/>
		<stop  offset="0.2921" style="stop-color:#514451"/>
		<stop  offset="0.5455" style="stop-color:#594A57"/>
		<stop  offset="1" style="stop-color:#5B4C59"/>
	</linearGradient>
	<path fill="url(#SVGID_2_)" d="M33.1,257.8c-4.2,0.2-12.7-0.4-13-8.5c-0.2-4.9,0.7-9,5.8-9.2L109,237c5.1-0.2,6.3,3.8,6.5,8.7
		c0.3,8-8.1,9.3-12.3,9.4L33.1,257.8z"/>
	
		<linearGradient id="SVGID_3_" gradientUnits="userSpaceOnUse" x1="1569.1418" y1="2634.3557" x2="1570.1426" y2="2634.3557" gradientTransform="matrix(-110.051 4.7905 -4.7157 -108.8068 185230 279315.1875)">
		<stop  offset="0" style="stop-color:#EDF1F7"/>
		<stop  offset="8.333295e-02" style="stop-color:#F2F6FB"/>
		<stop  offset="0.2523" style="stop-color:#F6FAFF"/>
		<stop  offset="0.7472" style="stop-color:#F2F6FC"/>
		<stop  offset="1" style="stop-color:#EDF1F7"/>
	</linearGradient>
	<path fill="url(#SVGID_3_)" d="M63.9,149c44.5-2.2,54.4,2.1,55.2,17.9c3.5,69.4,7.3,78.4-5,79l-90.4,4.6
		c-12.3,0.6-9.4-8.6-12.9-78.1C10,156.6,19.4,151.3,63.9,149z"/>
	
		<linearGradient id="SVGID_4_" gradientUnits="userSpaceOnUse" x1="1571.5161" y1="2637.0691" x2="1572.5159" y2="2637.0691" gradientTransform="matrix(4.3045 85.3459 86.3227 -4.3563 -234332.1719 -122476.7734)">
		<stop  offset="0" style="stop-color:#B2699E"/>
		<stop  offset="0.1526" style="stop-color:#C477AE"/>
		<stop  offset="0.3416" style="stop-color:#D283BB"/>
		<stop  offset="0.5773" style="stop-color:#DA89C2"/>
		<stop  offset="1" style="stop-color:#DC8BC4"/>
	</linearGradient>
	<path fill="url(#SVGID_4_)" d="M77.2,165.5c0.1-0.3,1.9-3.3,2-3.5c0.1-0.3-1.2-3-1.6-3.2c-0.2-0.1-2.7-1.1-5.2-1
		c-2.5,0.1-4.9,1.4-5.1,1.5c-0.4,0.2-1.4,3.1-1.2,3.3c0.1,0.2,2.1,3.1,2.3,3.3c0.2,0.2-6.1,60.2-5.4,61.3
		c0.7,1.2,11.8,12.8,13.6,12.7c1.8-0.1,9.8-11.6,10.3-12.9C87.3,225.9,77.1,165.8,77.2,165.5z"/>
	<path fill="#EDF1F7" d="M43.8,148c-31.3,1.6-10.9,10.1-14,16.6l27.7,2.7l14.9-8.3l15.7,6.8l10.6-3.5
		C96.7,150.2,85.3,145.9,43.8,148z"/>
	<path fill="#D6DAE0" d="M23.6,250.5c0,0-0.3,0-0.7,0.1c-0.5,0-1.2,0.1-2.1,0c-0.9-0.1-2-0.4-3.1-1.2c-0.5-0.4-1-1-1.5-1.6
		c-0.4-0.7-0.8-1.4-1.1-2.2c-0.6-1.6-1-3.4-1.3-5.3c-0.3-1.9-0.6-3.9-0.7-6c-0.4-4.2-0.6-8.6-0.8-13.1c-0.2-4.5-0.3-8.9-0.5-13.1
		c-0.1-4.2-0.2-8.1-0.3-11.4c-0.1-3.3-0.1-6.1-0.1-8.1c0-2,0-3.1,0-3.1s0.1,1.1,0.2,3.1c0.1,2,0.3,4.7,0.5,8.1
		c0.2,3.3,0.4,7.2,0.6,11.4c0.2,4.2,0.4,8.6,0.6,13.1c0.2,4.5,0.4,8.9,0.7,13.1c0.3,4.1,0.7,8.1,1.7,11.2c0.5,1.5,1.2,2.9,2.2,3.7
		c1,0.8,2,1.1,2.9,1.3c0.9,0.2,1.6,0.2,2.1,0.2C23.4,250.5,23.6,250.5,23.6,250.5z"/>
	<path fill="#D6DAE0" d="M119.7,179.9c0,0,0.1,1.1,0.3,3.1c0.2,1.9,0.4,4.7,0.7,8.1c0.2,3.3,0.6,7.2,0.9,11.4
		c0.3,4.2,0.6,8.6,0.9,13.1c0.2,4.5,0.4,8.9,0.5,13.1c0,2.1,0,4.1-0.1,6.1c-0.1,1.9-0.3,3.8-0.8,5.4c-0.2,0.8-0.5,1.6-0.8,2.3
		c-0.4,0.7-0.8,1.3-1.3,1.7c-1,0.9-2.1,1.3-3,1.5c-0.9,0.2-1.6,0.2-2.1,0.3c-0.5,0-0.7,0-0.7,0s0.3,0,0.7-0.1c0.5-0.1,1.2-0.2,2-0.4
		c0.9-0.2,1.9-0.7,2.8-1.6c0.9-0.9,1.5-2.3,1.8-3.9c0.7-3.2,0.6-7.1,0.6-11.3c-0.1-4.2-0.4-8.6-0.6-13.1c-0.2-4.5-0.5-8.9-0.7-13.1
		c-0.2-4.2-0.4-8.1-0.6-11.4c-0.2-3.3-0.2-6.1-0.3-8.1C119.7,181,119.7,179.9,119.7,179.9z"/>
	<path fill="#231C19" d="M59.9,362.9c-0.2-0.5-16.4-7.3-17.8-7.4s-17,1.5-17.8,2.3c-0.8,0.8-2.3,9.8-1.2,10.9
		c0.1,0.1,9.1,0.2,18,0.2c8.9,0,17.9-0.1,18-0.2C59.4,368.3,60.1,363.4,59.9,362.9z"/>
	
		<linearGradient id="SVGID_5_" gradientUnits="userSpaceOnUse" x1="1570.1898" y1="2636.1719" x2="1571.1895" y2="2636.1719" gradientTransform="matrix(-67.5548 96.9781 96.9781 67.5548 -149469.8125 -330351.9375)">
		<stop  offset="0" style="stop-color:#705D6A"/>
		<stop  offset="0.1337" style="stop-color:#5F4F59"/>
		<stop  offset="0.2366" style="stop-color:#574951"/>
		<stop  offset="0.8602" style="stop-color:#2F272B"/>
		<stop  offset="1" style="stop-color:#453C41"/>
	</linearGradient>
	<path fill="url(#SVGID_5_)" d="M135.9,28.3c-0.8-1.5-9.2-6.9-15-9.6l0,0h0l2.3-5.6c-16.5-6.3-33.8-4.4-33.8-4.4L89.4,3
		C71.2,0.8,51.3,7,51.3,7l-4.4-7C23.5,6.7,9.1,20.1,6.7,23.9C4.3,27.8,2.6,72,3.8,84.3C6.7,114.5,24,130,67.1,131.5
		c43.2,1.5,61.5-13.5,66.4-42.6C135.3,77.6,136.6,29.8,135.9,28.3z"/>
	<path fill="#FDCA9E" d="M136.2,104.6c-0.2,6.1-5.7,12.7-10,12.5c-10.7-0.4-3.9-22.2,2.6-22C133.1,95.3,136.4,98.5,136.2,104.6z"/>
	<path fill="#FDCA9E" d="M0,99.9c-0.2,6.1,4.8,13.1,9.1,13.2C19.9,113.4,14.5,91.2,8,91C3.8,90.8,0.2,93.8,0,99.9z"/>
	<g>
		<path fill="#272726" d="M109.1,265.9c0,0,0.3-1.6,0.8-4.3c0.3-1.4,0.5-3.1,0.7-5c0.3-1.9,0.5-4.1,0.9-6.5c0.2-2.4,0.4-5,0.7-7.8
			c0.3-2.8,0.3-5.7,0.5-8.8c0.1-1.5,0.2-3.1,0.2-4.6c0-1.6,0-3.2,0-4.8c0-1.6,0.1-3.2,0-4.8c0-1.6-0.1-3.3-0.1-4.9
			c0-3.3-0.2-6.5-0.4-9.8c-0.1-3.2-0.5-6.4-0.7-9.4c-0.2-3.1-0.6-6-0.9-8.8c-0.3-2.8-0.7-5.4-1-7.9c-0.4-2.4-0.7-4.7-1-6.6
			c-0.3-2-0.6-3.7-0.9-5.1c-0.3-1.4-0.5-2.5-0.6-3.3c-0.2-0.7-0.2-1.1-0.2-1.1c-0.5-2.6,1.6-5.3,4.8-6.2c3.2-0.9,6.4,0.7,7.2,3.5
			c0,0,0.1,0.4,0.3,1.2c0.2,0.8,0.5,1.9,0.8,3.4c0.3,1.5,0.7,3.2,1.2,5.3c0.4,2,0.9,4.3,1.4,6.9c0.5,2.5,1,5.3,1.5,8.1
			c0.4,2.9,1,6,1.4,9.1c0.4,3.2,0.9,6.5,1.2,9.8c0.4,3.4,0.7,6.8,1,10.2c0.1,1.7,0.3,3.4,0.4,5.1c0.1,1.7,0.2,3.4,0.2,5.1
			c0.1,1.7,0.1,3.4,0.2,5c0.1,1.7,0,3.3,0.1,4.9c0,3.2,0.1,6.4-0.1,9.3c-0.1,3-0.2,5.8-0.3,8.4c-0.2,2.6-0.4,5-0.6,7.1
			c-0.2,2.1-0.3,4-0.5,5.5c-0.4,3-0.6,4.8-0.6,4.8c-0.4,2.9-4.6,4.5-9.5,3.5C112.2,271.3,108.6,268.5,109.1,265.9z"/>
		<path fill="#3B3D3D" d="M122.1,172.8c0,0,0.3,1.5,0.8,4c0.5,2.6,1.2,6.2,1.9,10.7c0.4,2.2,0.7,4.6,1.1,7.2c0.3,2.6,0.7,5.2,1,8
			c0.6,5.6,1.1,11.6,1.5,17.6c0.1,3,0.3,6,0.4,9c0,3,0,5.9,0.1,8.7c0,0.7,0,1.4,0,2.1c0,0.7,0,1.4-0.1,2.1c0,1.4-0.1,2.7-0.1,4
			c-0.1,2.6-0.1,5.1-0.4,7.3c-0.2,2.3-0.3,4.4-0.5,6.2c-0.1,0.9-0.1,1.8-0.2,2.6c-0.1,0.8-0.2,1.5-0.3,2.2c-0.3,2.6-0.5,4.2-0.5,4.2
			c-0.4,2.9-4.6,4.5-9.5,3.5c4.1,0.8,7.8-1.4,8.1-3.8c0,0,0.2-1.5,0.6-4.1c0.1-0.7,0.2-1.4,0.3-2.2c0.1-0.8,0.2-1.7,0.3-2.6
			c0.2-1.8,0.4-3.9,0.6-6.2c0.3-2.3,0.3-4.7,0.5-7.3c0.1-1.3,0.1-2.6,0.2-4c0-0.7,0.1-1.4,0.1-2.1c0-0.7,0-1.4,0-2.1
			c0-2.8,0.1-5.7,0.1-8.7c-0.1-3-0.2-6-0.2-9c-0.3-6-0.7-12-1.2-17.6c-0.2-2.8-0.6-5.5-0.9-8c-0.3-2.6-0.6-5-1-7.2
			c-0.6-4.4-1.3-8.1-1.7-10.7C122.3,174.3,122.1,172.8,122.1,172.8z"/>
		<path fill="#272726" d="M7.3,270.8c0,0-0.2-1.7-0.6-4.7c-0.2-1.5-0.4-3.3-0.6-5.4c-0.2-2.1-0.4-4.4-0.6-7
			c-0.1-2.6-0.3-5.3-0.5-8.2c-0.2-2.9-0.2-6-0.3-9.2c0-1.6-0.1-3.2-0.1-4.8c0-1.6,0-3.3,0.1-5c0-1.7,0-3.3,0.1-5
			c0.1-1.7,0.1-3.4,0.2-5.1c0.1-1.7,0.1-3.4,0.2-5.1c0.1-1.7,0.2-3.4,0.3-5c0.2-3.3,0.5-6.6,0.8-9.7c0.3-3.2,0.7-6.2,1-9.1
			c0.3-2.9,0.7-5.6,1-8.1c0.4-2.5,0.7-4.8,1-6.8c0.3-2,0.6-3.8,0.9-5.3c0.3-1.5,0.5-2.6,0.6-3.4c0.2-0.8,0.2-1.2,0.2-1.2
			c0.5-2.7,3.7-4.5,6.9-3.8c3.2,0.7,5.5,3.3,5.2,5.9c0,0-0.1,0.4-0.2,1.1c-0.1,0.8-0.2,1.9-0.4,3.3c-0.2,1.4-0.4,3.1-0.6,5.1
			c-0.2,2-0.4,4.2-0.7,6.6c-0.2,2.4-0.4,5.1-0.6,7.9c-0.1,2.8-0.4,5.7-0.5,8.8c-0.1,3-0.3,6.2-0.3,9.4c0,1.6,0,3.2-0.1,4.8
			c0,1.6,0,3.2,0,4.9c0,1.6,0,3.2,0.1,4.9c0.1,1.6,0.1,3.2,0.2,4.8c0.1,1.6,0.1,3.2,0.2,4.7c0.1,1.6,0.2,3.1,0.3,4.6
			c0.2,3,0.4,5.9,0.7,8.7c0.3,2.8,0.6,5.3,0.8,7.7c0.3,2.4,0.7,4.6,0.9,6.5c0.3,1.9,0.5,3.6,0.8,5c0.5,2.7,0.8,4.3,0.8,4.3
			c0.5,2.6-3.1,5.4-8,6.3C12,275.1,7.7,273.6,7.3,270.8z"/>
		<path fill="#3B3D3D" d="M21.7,177.8c0,0-0.1,1.4-0.4,3.9c-0.2,2.5-0.5,6-0.7,10.3c-0.1,1.1-0.1,2.2-0.2,3.3c0,1.1-0.1,2.3-0.1,3.6
			c-0.1,2.4-0.2,5-0.2,7.7c-0.1,5.3-0.1,11,0.1,16.7c0.1,2.8,0.2,5.7,0.3,8.4c0.2,2.8,0.4,5.5,0.6,8.1c0.1,1.3,0.2,2.6,0.3,3.9
			c0.1,1.3,0.3,2.5,0.4,3.7c0.3,2.4,0.5,4.7,0.8,6.8c0.3,2.1,0.6,4,0.8,5.7c0.1,0.8,0.2,1.6,0.3,2.4c0.1,0.7,0.3,1.4,0.4,2
			c0.5,2.4,0.7,3.8,0.7,3.8c0.5,2.6-3.1,5.4-8,6.3c4.1-0.8,6.9-3.9,6.5-6.1c0,0-0.2-1.4-0.6-3.8c-0.1-0.6-0.2-1.3-0.3-2
			c-0.1-0.7-0.2-1.5-0.3-2.4c-0.2-1.7-0.4-3.6-0.7-5.7c-0.3-2.1-0.5-4.4-0.7-6.8c-0.1-1.2-0.2-2.5-0.3-3.7c-0.1-1.3-0.2-2.6-0.3-3.9
			c-0.1-2.7-0.3-5.4-0.4-8.2c-0.1-2.8-0.1-5.6-0.2-8.5c0-5.7,0-11.4,0.2-16.7c0.1-2.7,0.2-5.2,0.3-7.7c0.1-1.2,0.1-2.4,0.2-3.6
			c0.1-1.1,0.2-2.3,0.2-3.3c0.3-4.3,0.6-7.8,0.9-10.3C21.6,179.2,21.7,177.8,21.7,177.8z"/>
		<g>
			<path fill="#222221" d="M73.4,204c-0.4-1.2-19-37.4-27.3-53.7c-29.3,2.8-36,8.7-35.3,22.1c3.5,69.4,0.6,78.7,12.9,78.1l47.7-2.4
				C72.9,229.9,73.8,205.1,73.4,204z"/>
			<path fill="#222221" d="M119,166.9c-0.6-11.6-6.1-17-26.4-18.2c-4.4,16.7-14.1,52.9-15.4,55.2c-1.1,2,0.4,27,1.6,43.7l35.3-1.8
				C126.3,245.3,122.5,236.4,119,166.9z"/>
		</g>
	</g>
	
		<linearGradient id="SVGID_6_" gradientUnits="userSpaceOnUse" x1="1573.4926" y1="2634.0215" x2="1574.4916" y2="2634.0215" gradientTransform="matrix(116.6488 -24.0065 -24.0065 -116.6488 -120302.3281 345133.75)">
		<stop  offset="0" style="stop-color:#FDD1A7"/>
		<stop  offset="0.1401" style="stop-color:#FDC695"/>
		<stop  offset="0.5338" style="stop-color:#FDCCA0"/>
		<stop  offset="1" style="stop-color:#FDD1A7"/>
	</linearGradient>
	<path fill="url(#SVGID_6_)" d="M121.8,29.8c15,13.9,3.6,120.6-5.6,129.1c-6.4,5.9-94.1,2.8-100-3.5C7.6,146.2,3.7,39,19.6,26.2
		C29.4,18.3,112.6,21.2,121.8,29.8z"/>
	<path fill="#F5BA86" d="M71.2,18.7c6.2,0.2,54.1-1.2,59.4,18.2c4.3,15.8-6.6,45.5-5,14.5c0.1-1.5-1.1-4.3-4.3-4
		c-7,0.6-22.5,1.4-51.1,0.4c-27.1-0.9-42.5-2.7-49.9-3.8c-4-0.6-5.7,2.5-5.7,4.2c-0.6,30.7-9.4,0-3.9-15.5
		C17.4,13.7,65,18.5,71.2,18.7z"/>
	
		<linearGradient id="SVGID_7_" gradientUnits="userSpaceOnUse" x1="1570.1981" y1="2636.1565" x2="1571.1971" y2="2636.1565" gradientTransform="matrix(-68.0102 97.6319 97.6319 68.0102 -150474.0156 -332578.2188)">
		<stop  offset="0" style="stop-color:#705D6A"/>
		<stop  offset="0.1337" style="stop-color:#5F4F59"/>
		<stop  offset="0.2366" style="stop-color:#574951"/>
		<stop  offset="0.8602" style="stop-color:#2F272B"/>
		<stop  offset="1" style="stop-color:#453C41"/>
	</linearGradient>
	<path fill="url(#SVGID_7_)" d="M71.6,8.8c15,0.5,54,2.6,59.2,23.5c4.5,18-2.7,75.1-2.4,72.7l-3.7-1c0,0-0.7-21.6,1.1-55.2
		c0.1-1.6-1.1-4.6-4.3-4.3c-7,0.7-22.5,1.6-51.2,0.6c-27.1-0.9-42.5-2.8-49.9-3.9c-4-0.6-5.7,2.7-5.7,4.6C14.1,79,12,100.1,12,100.1
		l-4.2,0.7c0.2,2.5-2.6-55,3.1-72.7C17.6,7.6,56.6,8.3,71.6,8.8z"/>
	<path fill="#825A41" d="M44.3,136.8c0.2,0,5.9,1,20.7,0.9c14.8-0.2,20.5-1.3,20.7-1.3c1.3-0.3,2.1-1.5,1.8-2.7
		c-0.3-1.3-1.5-2.1-2.7-1.8l0,0.1l0-0.1h0l0,0.1l0-0.1c-0.2,0-5.7,1.1-19.9,1.2c-7.3,0.1-12.3-0.1-15.5-0.3
		c-1.6-0.1-2.7-0.2-3.4-0.3c-0.4,0-0.6-0.1-0.8-0.1l-0.2,0l0,0l0,0.1l0-0.1l0,0l0,0.1l0-0.1c-1.3-0.2-2.5,0.6-2.7,1.9
		C42.2,135.4,43,136.6,44.3,136.8z"/>
	
		<radialGradient id="SVGID_8_" cx="1560.5166" cy="2641.1438" r="1.0001" gradientTransform="matrix(-16.4869 10.0974 10.0974 16.4869 -895.6069 -59212.832)" gradientUnits="userSpaceOnUse">
		<stop  offset="0" style="stop-color:#5E4753"/>
		<stop  offset="0.4649" style="stop-color:#493640"/>
		<stop  offset="0.8763" style="stop-color:#32252B"/>
		<stop  offset="1" style="stop-color:#4E3E45"/>
	</radialGradient>
	<path fill="url(#SVGID_8_)" d="M45.1,96c-2.3,4.5-7.7,6-12.3,3.7c-4.6-2.3-6.2-7.6-3.8-12.1c2.3-4.5,6.9-4.2,11.4-1.8
		C45,88.1,47.4,91.5,45.1,96z"/>
	<path fill="#FFFFFF" d="M44.1,90.5c1,2,0.7,4.2-0.7,4.9c-1.4,0.8-5.2-6.4-3.7-7.2C41.1,87.6,43.1,88.6,44.1,90.5z"/>
	
		<radialGradient id="SVGID_9_" cx="1581.7792" cy="2627.0544" r="1" gradientTransform="matrix(15.7424 11.2229 -11.2229 15.7424 4674.3213 -59018.0312)" gradientUnits="userSpaceOnUse">
		<stop  offset="0" style="stop-color:#5E4753"/>
		<stop  offset="0.4649" style="stop-color:#493640"/>
		<stop  offset="0.8763" style="stop-color:#32252B"/>
		<stop  offset="1" style="stop-color:#4E3E45"/>
	</radialGradient>
	<path fill="url(#SVGID_9_)" d="M91.6,97.6c2,4.6,7.2,6.6,12,4.5c4.7-2,6.7-7.1,4.7-11.8c-2-4.6-6.5-4.7-11.3-2.6
		C92.2,89.7,89.5,93,91.6,97.6z"/>
	<path fill="#FFFFFF" d="M106.5,90.9c1,2,0.7,4.2-0.7,4.9c-1.4,0.8-5.2-6.4-3.7-7.2C103.5,87.9,105.5,88.9,106.5,90.9z"/>
	
		<radialGradient id="SVGID_10_" cx="1556.6123" cy="2637.0625" r="1" gradientTransform="matrix(-16.2022 2.8968 2.8968 16.2022 17599.832 -46948.2109)" gradientUnits="userSpaceOnUse">
		<stop  offset="0" style="stop-color:#FDD1A7"/>
		<stop  offset="0.4858" style="stop-color:#FDCEA2"/>
		<stop  offset="1" style="stop-color:#FDC695"/>
	</radialGradient>
	<path fill="url(#SVGID_10_)" d="M17.7,307.6c1.2,0.4,11.4-4,12-5.1c0.5-0.9-2.1-10.7-3.2-15.1c1.5-1.3,3.2-2.9,3.4-3.3
		c0.2-0.6-2.9-10.8-4.6-14.3c-0.2-1.8-0.5-3.2-0.9-3.4c-1.4-1-15.5,2.7-16.6,4c-1.1,1.3-1.5,16.7-1.1,18.5
		C7,290.6,16.4,307.1,17.7,307.6z"/>
</g>
</svg>
