<?xml version="1.0" encoding="utf-8"?>
<!-- Generator: Adobe Illustrator 18.1.0, SVG Export Plug-In . SVG Version: 6.00 Build 0)  -->
<!DOCTYPE svg PUBLIC "-//W3C//DTD SVG 1.1//EN" "http://www.w3.org/Graphics/SVG/1.1/DTD/svg11.dtd">
<svg version="1.1" xmlns="http://www.w3.org/2000/svg" xmlns:xlink="http://www.w3.org/1999/xlink" x="0px" y="0px"
	 viewBox="0 0 144.8 370" enable-background="new 0 0 144.8 370" xml:space="preserve">
<g id="Layer">
	<g>
		<path fill="#1C1C1B" d="M41.6,231.4c0,0,3.3,16.7-6.5,16.2"/>
		<path fill="#703624" d="M72.8,127.8c65.8-1.2,50.8,40.9,50.8,40.9s-20.4-5.4-49.8-4.9c-29.5,0.5-49.6,6.6-49.6,6.6
			S7,129.1,72.8,127.8z"/>
		
			<radialGradient id="SVGID_1_" cx="1822.4647" cy="3336.8088" r="0.9986" gradientTransform="matrix(3.4151 195.1114 201.8232 -3.5326 -679589.5625 -343808.3438)" gradientUnits="userSpaceOnUse">
			<stop  offset="0" style="stop-color:#BB6F4A"/>
			<stop  offset="0.1022" style="stop-color:#BB6F4A"/>
			<stop  offset="0.8925" style="stop-color:#8A422C"/>
			<stop  offset="1" style="stop-color:#8A422C"/>
		</radialGradient>
		<path fill="url(#SVGID_1_)" d="M89.1,7.5C174.2,6,141,160.9,123.6,168.7c0,0-19.7-10.5-49.9-9.9c-30.2,0.5-49.6,11.7-49.6,11.7
			C6.5,163.3-31.9,20.1,52.9,1.8C81.5-4.4,89.1,7.5,89.1,7.5z"/>
		<path fill="#703624" d="M73.7,158.8c13.9-0.2,25.6,1.8,34.1,4.1c6.2-8.1,18.4-31.9,18.7-35.8c0.2-2.5,0.7-7.1,1.3-12
			c3.1-28.2,3-30.9,2.9-34.8l0-0.8c-0.4-25.2-5.7-41.8-16.8-52.4c-9.7-9.2-23.7-13.5-42.8-13.2C52,14.3,38.2,19.1,28.9,28.7
			c-10.7,10.9-15.5,27.8-15,53l0,0.8C14,86.2,14,88.9,18,117c0.7,4.9,1.4,9.5,1.7,12c0.5,3.9,13.5,27.3,20,35.2
			C48.2,161.6,59.8,159.1,73.7,158.8z"/>
		<linearGradient id="SVGID_2_" gradientUnits="userSpaceOnUse" x1="36.0603" y1="176.5639" x2="32.4353" y2="196.439">
			<stop  offset="0" style="stop-color:#FCF8F7"/>
			<stop  offset="0.4149" style="stop-color:#FAF5F4"/>
			<stop  offset="0.7044" style="stop-color:#F4EDEB"/>
			<stop  offset="0.9551" style="stop-color:#EADFDC"/>
			<stop  offset="1" style="stop-color:#E8DCD8"/>
		</linearGradient>
		<path fill="url(#SVGID_2_)" d="M49.7,177.9c1-0.6,1.7-1.6,2-2.9c0.3-1.3,0.2-2.9-0.4-4.4c-0.6-1.5-1.7-2.7-3-3.3
			c-1.3-0.6-2.8-0.7-4,0c0,0-0.5,0.3-1.3,0.7c-0.9,0.4-2,1.2-3.4,2c-2.8,1.8-6.3,4.3-9.6,7.1c-3.3,2.8-6.2,6-8.3,8.5
			c-0.5,0.6-1,1.2-1.4,1.7c-0.4,0.5-0.7,1-1,1.4c-0.6,0.8-0.9,1.2-0.9,1.2l9.8,6.9c0,0,0.3-0.4,0.7-1c0.2-0.3,0.5-0.7,0.8-1.1
			c0.4-0.4,0.7-0.9,1.2-1.4c1.7-2.1,4.2-4.8,7-7.2c2.8-2.4,5.7-4.5,8-6c1.2-0.7,2.1-1.3,2.8-1.6C49.3,178.2,49.7,177.9,49.7,177.9z"
			/>
		<path fill="#EDE7E3" d="M44.3,167.3c-0.6,0.3-1.2,0.6-1.8,1l-1.7,1c-0.6,0.3-1.1,0.7-1.7,1.1l-1.7,1.1l-1.7,1.1
			c-0.5,0.4-1.1,0.8-1.6,1.2l-3.2,2.5l-3,2.7c-0.5,0.5-1,0.9-1.5,1.4l-1.4,1.5l-1.4,1.5c-0.5,0.5-0.9,1-1.3,1.5l-1.3,1.6
			c-0.4,0.5-0.8,1-1.2,1.6l0-0.3l9.5,7.3l-0.3,0.1c0.4-0.4,0.7-0.9,1.1-1.3l1.1-1.3c0.4-0.4,0.7-0.9,1.1-1.3l1.2-1.2l1.2-1.2
			l1.2-1.1l2.5-2.3l2.7-2.1l1.3-1l1.4-0.9c1-0.6,1.9-1.3,2.9-1.8c1-0.5,1.9-1.1,3-1.6c-1,0.5-2,1.1-2.9,1.7c-1,0.5-1.9,1.2-2.8,1.9
			l-1.4,1l-1.3,1l-2.6,2.1l-2.5,2.3c-0.4,0.4-0.8,0.8-1.2,1.1l-1.1,1.2l-1.2,1.2c-0.4,0.4-0.8,0.8-1.1,1.3l-1.1,1.3
			c-0.4,0.4-0.7,0.9-1,1.3l-0.1,0.2l-0.2-0.1l-9.6-7.3l-0.2-0.1l0.1-0.2c0.4-0.5,0.8-1.1,1.3-1.6l1.3-1.5c0.4-0.5,0.9-1,1.3-1.5
			l1.4-1.5l1.4-1.5c0.5-0.5,1-0.9,1.5-1.4l3-2.7l3.2-2.5c0.5-0.4,1.1-0.8,1.6-1.2l1.7-1.1l1.7-1.1c0.6-0.4,1.1-0.7,1.7-1l1.8-1
			C43.1,167.9,43.7,167.6,44.3,167.3z"/>
		<radialGradient id="SVGID_3_" cx="42.9916" cy="241.67" r="57.4074" gradientUnits="userSpaceOnUse">
			<stop  offset="0" style="stop-color:#FDD4B2"/>
			<stop  offset="0.4656" style="stop-color:#FDD2B0"/>
			<stop  offset="0.7393" style="stop-color:#FDCDA7"/>
			<stop  offset="0.9631" style="stop-color:#FDC599"/>
			<stop  offset="1" style="stop-color:#FDC396"/>
		</radialGradient>
		<path fill="url(#SVGID_3_)" d="M48.3,236.5c0,0-1-0.1-2.7-0.5c-0.9-0.2-1.9-0.4-3.1-0.7c-1.2-0.3-2.5-0.7-3.9-1.2
			c-0.7-0.2-1.4-0.5-2.1-0.8c-0.7-0.3-1.5-0.5-2.3-0.9c-0.7-0.4-1.5-0.7-2.3-1.1l-0.6-0.3l-0.5-0.3c-0.4-0.2-0.7-0.4-1.1-0.7
			c-2.9-1.8-5.6-4.2-7.2-7c-1.6-2.8-2.4-6.1-2.1-9.3c0.2-3.2,1.1-6.4,2.2-9c1.1-2.6,2.3-4.7,3.2-6.2c0.5-0.7,0.8-1.3,1.1-1.7
			c0.2-0.4,0.4-0.6,0.4-0.6l-8.2-5.7c0,0-0.2,0.2-0.5,0.7c-0.3,0.5-0.7,1.1-1.3,2c-1.1,1.7-2.6,4.3-4,7.6c-1.4,3.3-2.7,7.5-3,12.3
			c-0.3,4.8,0.8,10.3,3.5,14.9c2.7,4.6,6.7,8.1,10.5,10.5c1.9,1.3,3.9,2.2,5.8,3.1c0.9,0.4,1.9,0.7,2.7,1.1c0.9,0.3,1.7,0.7,2.6,0.9
			c1.7,0.5,3.2,0.9,4.5,1.3c1.4,0.3,2.5,0.6,3.5,0.8c1.9,0.5,3.1,0.6,3.1,0.6c2.7,0.4,5.1-0.9,5.5-4.2
			C52.5,238.8,50.7,236.9,48.3,236.5z"/>
		<path fill="#D8D2CF" d="M20.1,187.5c0,0-0.7,1-1.5,2c-0.7,1-1.4,2-1.4,2c2.2,1.7,7.6,5.2,10,6.6c0,0,0.5-0.8,1.1-1.6
			c0.6-0.8,1.2-1.6,1.2-1.6C27.4,192.3,22.5,188.6,20.1,187.5z"/>
		<path fill="#F5B687" d="M27.6,195.8l-1.3,2l-0.2,0.2c-0.1,0.2-0.1,0.2-0.2,0.3l-0.3,0.5c-0.2,0.3-0.4,0.7-0.6,1
			c-0.4,0.7-0.7,1.4-1.1,2.1c-0.4,0.7-0.7,1.4-1,2.2c-0.2,0.3-0.3,0.7-0.4,1.1l-0.4,1.1l-0.7,2.3l-0.5,2.3l-0.3,2.4l0,0v0l0,1.2
			l0,1.2l0.3,2.4l0,0l0.3,1.2l0.2,0.6l0.2,0.5c0.2,0.4,0.3,0.8,0.5,1.1l0.2,0.5l0.3,0.5l0,0c0.3,0.5,0.6,1.1,1,1.6
			c0.3,0.5,0.8,1,1.2,1.5c0.8,0.9,1.8,1.8,2.7,2.5c0.5,0.4,1,0.8,1.5,1.1c0.5,0.4,1,0.7,1.6,1c0.5,0.3,1.1,0.6,1.6,0.9l1.7,0.8
			c0.6,0.3,1.1,0.5,1.7,0.7l1.8,0.7c0.6,0.2,1.2,0.5,1.8,0.6l1.8,0.6c0.6,0.2,1.2,0.4,1.8,0.5l1.8,0.4c1.2,0.3,2.5,0.6,3.7,0.8
			c-1.2-0.2-2.5-0.4-3.7-0.7l-1.8-0.4c-0.6-0.1-1.2-0.3-1.8-0.5l-1.8-0.5c-0.6-0.2-1.2-0.4-1.8-0.6l-1.8-0.7
			c-0.6-0.2-1.2-0.5-1.8-0.7l-1.7-0.8c-0.6-0.3-1.1-0.6-1.7-0.9c-0.5-0.3-1.1-0.7-1.6-1c-0.5-0.3-1-0.7-1.5-1.1
			c-1-0.8-1.9-1.6-2.8-2.6c-0.4-0.5-0.8-1-1.2-1.5c-0.4-0.5-0.7-1.1-1-1.6l0,0l-0.3-0.6l-0.3-0.6c-0.1-0.4-0.3-0.8-0.5-1.1l-0.2-0.6
			l-0.1-0.6l-0.3-1.2l0,0l0,0l-0.3-2.5l0-1.2l0.1-1.3l0,0l0.3-2.4l0.6-2.3l0.7-2.3l0.4-1.1c0.2-0.4,0.3-0.7,0.5-1.1
			c0.4-0.7,0.7-1.5,1.1-2.1c0.4-0.7,0.8-1.4,1.2-2.1c0.2-0.3,0.4-0.7,0.6-1l0.3-0.5c0.1-0.1,0.1-0.2,0.2-0.2l0.2-0.2L27.6,195.8z"/>
		<path fill="#F5B687" d="M46.5,246.3l-2.9-0.6c-0.9-0.2-1.9-0.4-2.9-0.6c-1-0.2-1.9-0.5-2.9-0.7c-0.9-0.3-1.9-0.5-2.8-0.8
			c-1.8-0.7-3.7-1.3-5.5-2.1l-2.7-1.3c-0.9-0.5-1.7-0.9-2.6-1.5c-0.8-0.5-1.7-1-2.5-1.7c-0.8-0.6-1.6-1.2-2.3-1.8
			c-0.7-0.7-1.5-1.3-2.1-2.1c-0.4-0.3-0.7-0.7-1-1.1c-0.3-0.4-0.7-0.7-0.9-1.1c-0.6-0.8-1.2-1.6-1.7-2.5c-0.5-0.8-1-1.7-1.4-2.6
			c-0.4-0.9-0.8-1.8-1.1-2.8l-0.7-2.9l0,0l0,0l-0.2-2c-0.1-0.7-0.2-1.3-0.2-2c0-0.7,0-1.3,0-2c0-0.7,0-1.3,0.1-2l0.3-2l0.1-1l0.2-1
			l0.5-2c0.2-0.7,0.4-1.3,0.6-1.9c0.2-0.6,0.4-1.3,0.7-1.9l0.7-1.9c0.3-0.6,0.6-1.2,0.9-1.8c0.3-0.6,0.6-1.2,0.9-1.8
			c0.3-0.6,0.6-1.2,1-1.8c0.3-0.6,0.7-1.2,1.1-1.7c0.4-0.6,0.7-1.1,1.1-1.7l1.2-1.7l-1.1,1.7c-0.4,0.5-0.7,1.1-1.1,1.7
			c-0.4,0.6-0.7,1.1-1,1.7c-0.3,0.6-0.6,1.2-0.9,1.8c-0.3,0.6-0.6,1.2-0.9,1.8c-0.3,0.6-0.6,1.2-0.8,1.8l-0.7,1.9
			c-0.3,0.6-0.4,1.3-0.6,1.9c-0.2,0.6-0.4,1.3-0.6,1.9l-0.4,2l-0.2,1l-0.1,1l-0.2,2c-0.1,0.6-0.1,1.3-0.1,2c0,0.6,0,1.3,0,2
			c0,0.7,0.2,1.3,0.2,2l0.2,2l0,0l0.8,2.8c0.3,0.9,0.7,1.8,1.1,2.7c0.4,0.9,0.9,1.7,1.4,2.6c0.5,0.8,1,1.6,1.6,2.4
			c0.3,0.4,0.6,0.8,0.9,1.1c0.3,0.4,0.6,0.7,1,1.1c0.7,0.7,1.4,1.4,2.1,2c0.7,0.6,1.5,1.3,2.3,1.8c0.8,0.6,1.6,1.1,2.4,1.7
			c0.8,0.5,1.7,1,2.5,1.5l2.6,1.3c1.8,0.8,3.6,1.5,5.4,2.2c0.9,0.3,1.9,0.6,2.8,0.9c0.9,0.3,1.9,0.6,2.8,0.8l2.9,0.7L46.5,246.3z"/>
		<linearGradient id="SVGID_4_" gradientUnits="userSpaceOnUse" x1="22.9179" y1="188.664" x2="22.7723" y2="198.528">
			<stop  offset="0" style="stop-color:#FCF8F7"/>
			<stop  offset="0.4149" style="stop-color:#FAF5F4"/>
			<stop  offset="0.7044" style="stop-color:#F4EDEB"/>
			<stop  offset="0.9551" style="stop-color:#EADFDC"/>
			<stop  offset="1" style="stop-color:#E8DCD8"/>
		</linearGradient>
		<path fill="url(#SVGID_4_)" d="M19.6,187.6c0.8,0,9.6,6.9,9.9,7.6c0.3,0.7-0.6,3.6-1.3,3.6c-0.7,0-12-7.2-12.2-8
			C15.9,190,18.8,187.6,19.6,187.6z"/>
		<linearGradient id="SVGID_5_" gradientUnits="userSpaceOnUse" x1="106.0839" y1="181.7681" x2="96.7095" y2="183.268">
			<stop  offset="0" style="stop-color:#FCF8F7"/>
			<stop  offset="0.4149" style="stop-color:#FAF5F4"/>
			<stop  offset="0.7044" style="stop-color:#F4EDEB"/>
			<stop  offset="0.9551" style="stop-color:#EADFDC"/>
			<stop  offset="1" style="stop-color:#E8DCD8"/>
		</linearGradient>
		<path fill="url(#SVGID_5_)" d="M103.3,170.1c-0.4-1.1-1.4-1.9-2.7-2.1c-1.3-0.3-2.8,0-4.3,0.6c-1.5,0.7-2.7,1.7-3.5,2.7
			c-0.8,1-1.1,1.9-0.8,2.7c0,0,0.1,0.3,0.3,0.9c0.2,0.6,0.5,1.3,0.7,2.4c0.1,0.5,0.2,1,0.4,1.6c0.1,0.6,0.2,1.2,0.3,1.9
			c0.3,1.3,0.4,2.7,0.6,4.2c0.2,1.4,0.2,3,0.4,4.3c0.1,1.4,0.1,2.7,0.2,3.9c0.1,2.3,0.1,3.8,0.1,3.8l12-0.2c0,0,0-1.6-0.1-4
			c-0.1-1.2-0.1-2.6-0.2-4.2c-0.1-1.6-0.2-3.2-0.4-4.9c-0.2-1.7-0.4-3.3-0.7-4.9c-0.1-0.8-0.3-1.6-0.4-2.3c-0.2-0.7-0.3-1.4-0.5-2.1
			c-0.3-1.3-0.6-2.4-0.9-3.1C103.5,170.5,103.3,170.1,103.3,170.1z"/>
		<path fill="#EDE7E3" d="M92,174c0.3,0.9,0.6,1.7,0.8,2.6c0.2,0.9,0.5,1.7,0.6,2.6c0.2,0.9,0.4,1.8,0.5,2.6
			c0.1,0.5,0.1,0.9,0.2,1.3c0.1,0.4,0.1,0.9,0.2,1.3l0.3,2.7c0,0.4,0.1,0.9,0.1,1.3l0.1,1.3l0.1,1.3l0,0.3l0,0.1l0,0l0,0v0
			c0,0-0.4-0.4-0.2-0.2v0l0,0.2l0,0.7l0.1,2.7l0,0c4-0.1,8-0.2,12-0.3l0,0.5c-0.1-1-0.3-2.2-0.3-3.3l-0.2-3.2c0-1-0.1-2.1-0.2-3.1
			c-0.1-1-0.2-2.1-0.3-3.1l-0.2-1.6c0-0.5-0.2-1-0.2-1.5c-0.2-1-0.4-2.1-0.5-3.1c-0.2-1-0.4-2-0.7-3.1c-0.2-1-0.6-2-0.9-3
			c0.3,1,0.7,2,1,3c0.3,1,0.5,2,0.8,3c0.2,1,0.4,2.1,0.6,3.1c0.1,0.5,0.2,1,0.3,1.6l0.2,1.6c0.1,1,0.2,2.1,0.3,3.1
			c0.1,1,0.2,2.1,0.3,3.1l0.1,1.6c0,0.5,0.1,1.1,0.1,1.5c0,0.9-0.1,1.9-0.1,3l0,0.5c-4,0.1-8,0.2-12,0.3l0,0l-0.1-2.7l0-0.7l0-0.2v0
			c0.2,0.2-0.3-0.2-0.2-0.2v0l0,0l0,0l0-0.1l0-0.3l-0.1-1.3l-0.1-1.3c0-0.4-0.1-0.9-0.1-1.3l-0.2-2.7c0-0.4-0.1-0.9-0.1-1.3
			c-0.1-0.4-0.1-0.9-0.2-1.3c-0.1-0.9-0.3-1.8-0.4-2.6c-0.1-0.9-0.4-1.8-0.6-2.6C92.5,175.7,92.2,174.8,92,174z"/>
		<radialGradient id="SVGID_6_" cx="104.0052" cy="249.5653" r="30.1166" gradientUnits="userSpaceOnUse">
			<stop  offset="0" style="stop-color:#FDD4B2"/>
			<stop  offset="0.4656" style="stop-color:#FDD2B0"/>
			<stop  offset="0.7393" style="stop-color:#FDCDA7"/>
			<stop  offset="0.9631" style="stop-color:#FDC599"/>
			<stop  offset="1" style="stop-color:#FDC396"/>
		</radialGradient>
		<path fill="url(#SVGID_6_)" d="M106.3,250.6c0,0,0-0.8-0.1-2.3c0-1.5-0.1-3.6-0.1-6.1c-0.1-5-0.2-11.7-0.2-18.5
			c0-6.7,0-13.5,0-18.5c0-5.1-0.1-8.5-0.1-8.5l-10,0.2c0,0,0.1,3.3,0.1,8.3c0,5.1,0,11.8,0,18.5c0,6.8,0.1,13.5,0.2,18.6
			c0.1,2.5,0.1,4.7,0.1,6.1c0,1.5,0.1,2.3,0.1,2.3c0.1,2,1.8,3.7,5.1,3.6C104.7,254.3,106.3,252.6,106.3,250.6z"/>
		<path fill="#D8D2CF" d="M94.8,194.8l0.1,3.4c2.8,0.1,9.3,0,12-0.2l-0.1-3.6C103.6,194,97.4,194.3,94.8,194.8z"/>
		<path fill="#F5B687" d="M105.8,196.2c0,0,0,0.8,0.1,2.3c0,1.5,0.1,3.6,0.1,6.2c0,2.6,0,5.5,0.1,8.7c0,3.2,0,6.6,0,10
			c0.1,13.6,0.1,27.2,0.1,27.2s-0.1-3.4-0.3-8.5c0-2.6-0.1-5.5-0.2-8.7c0-3.2-0.1-6.6-0.1-10c0-3.4,0-6.8,0-10
			c0-3.2,0.1-6.2,0.1-8.7c0-2.6,0-4.7,0.1-6.2C105.8,197,105.8,196.2,105.8,196.2z"/>
		<path fill="#F5B687" d="M96.3,250.9c0,0-0.1-3.4-0.3-8.5c0-2.6-0.1-5.5-0.2-8.7c0-3.2-0.1-6.6-0.1-10c0-3.4,0-6.8,0-10
			c0-3.2,0.1-6.2,0.1-8.7c0-2.6,0-4.7,0.1-6.2c0-1.5,0-2.3,0-2.3s0,0.9,0.1,2.3c0,1.5,0.1,3.6,0.1,6.2c0,2.6,0,5.5,0.1,8.7
			c0,3.2,0,6.6,0,10C96.2,237.3,96.3,250.9,96.3,250.9z"/>
		<linearGradient id="SVGID_7_" gradientUnits="userSpaceOnUse" x1="100.8801" y1="194.8721" x2="100.8276" y2="198.4319">
			<stop  offset="0" style="stop-color:#FCF8F7"/>
			<stop  offset="0.4149" style="stop-color:#FAF5F4"/>
			<stop  offset="0.7044" style="stop-color:#F4EDEB"/>
			<stop  offset="0.9551" style="stop-color:#EADFDC"/>
			<stop  offset="1" style="stop-color:#E8DCD8"/>
		</linearGradient>
		<path fill="url(#SVGID_7_)" d="M94.6,195c0.7-0.3,11.8-0.7,12.5-0.3c0.7,0.3,1.7,2.9,1.1,3.3c-0.6,0.4-14,0.6-14.6,0.2
			C93,197.9,93.9,195.4,94.6,195z"/>
		
			<radialGradient id="SVGID_8_" cx="1822.7681" cy="3337.26" r="0.9996" gradientTransform="matrix(-3.2798 33.2723 -33.2723 -3.2798 117118.9375 -49457.2812)" gradientUnits="userSpaceOnUse">
			<stop  offset="0" style="stop-color:#FDD4B2"/>
			<stop  offset="0.5056" style="stop-color:#FDD3B0"/>
			<stop  offset="0.7364" style="stop-color:#FECFA9"/>
			<stop  offset="0.9111" style="stop-color:#FFC79C"/>
			<stop  offset="0.9194" style="stop-color:#FFC79B"/>
			<stop  offset="1" style="stop-color:#FDCEA8"/>
		</radialGradient>
		<path fill="url(#SVGID_8_)" d="M101.6,273.5c-0.7,0.3-6.6-1.7-7-2.4c-0.3-0.5,0.9-8.1,1.4-10.7c-0.9-0.6-2-1.5-2-1.7
			c-0.1-0.3,2-9.1,2.2-9.3c0.7-0.6,9-0.2,9.7,0.5c0.7,0.7,1.6,9.4,1.4,10.4C107.1,261.4,102.3,273.2,101.6,273.5z"/>
		
			<linearGradient id="SVGID_9_" gradientUnits="userSpaceOnUse" x1="1822.2827" y1="3337.0608" x2="1823.2832" y2="3337.0608" gradientTransform="matrix(-0.5555 -81.3861 -81.3861 0.5555 272662.875 146815.8594)">
			<stop  offset="0" style="stop-color:#EFD0A9"/>
			<stop  offset="0.4491" style="stop-color:#EECEA7"/>
			<stop  offset="0.6769" style="stop-color:#EAC89F"/>
			<stop  offset="0.8545" style="stop-color:#E3BE92"/>
			<stop  offset="1" style="stop-color:#D9B180"/>
		</linearGradient>
		<polygon fill="url(#SVGID_9_)" points="70.1,357.2 68.1,244.3 48.9,245.6 61.5,356.1 60.1,361.1 56.8,367 66.4,366.5 70.8,359.7 
					"/>
		
			<linearGradient id="SVGID_10_" gradientUnits="userSpaceOnUse" x1="1822.2914" y1="3337.0549" x2="1823.2911" y2="3337.0549" gradientTransform="matrix(-0.555 -81.3044 -81.3044 0.555 272416.625 146669.1562)">
			<stop  offset="0" style="stop-color:#EFD0A9"/>
			<stop  offset="0.4491" style="stop-color:#EECEA7"/>
			<stop  offset="0.6769" style="stop-color:#EAC89F"/>
			<stop  offset="0.8545" style="stop-color:#E3BE92"/>
			<stop  offset="1" style="stop-color:#D9B180"/>
		</linearGradient>
		<polygon fill="url(#SVGID_10_)" points="87.1,356.3 97.5,245.4 78.3,244.5 78.5,356.9 78.5,356.9 77.7,359.6 82.1,366.4 
			91.7,366.9 88.4,361 		"/>
		<path fill="#1C1C1B" d="M103.8,169c0,0,6.2,27.5,5.2,37.3c-1,9.8-1.8,43.5-1.8,43.5l-13.4-0.7l0.3-28.6l0.1-30.7l5-14.8L103.8,169
			z"/>
		
			<linearGradient id="SVGID_11_" gradientUnits="userSpaceOnUse" x1="1822.5702" y1="3334.7292" x2="1823.5703" y2="3334.7292" gradientTransform="matrix(4.4331 7.0761 7.0761 -4.4331 -31612.627 2250.3794)">
			<stop  offset="0" style="stop-color:#786D48"/>
			<stop  offset="0.5346" style="stop-color:#705C41"/>
			<stop  offset="1" style="stop-color:#6B533D"/>
		</linearGradient>
		<path fill="url(#SVGID_11_)" d="M56.6,366.8c0.2-0.3,9.5-0.8,10.1-1.2c0.6-0.4,3.7-6.8,3.8-6.9l0.5,0.4l-1,10.7h-1.2
			c-0.1-0.1,0.7-6.5,0-6.6c-0.7-0.1-1.1,6.2-1.6,6.6c-0.5,0.4-9.5,0.2-9.8,0C57.2,369.6,56.4,367,56.6,366.8z"/>
		
			<radialGradient id="SVGID_12_" cx="1822.7405" cy="3336.9255" r="1.2154" gradientTransform="matrix(-38.5 47.8335 47.8335 38.5 -89349.1094 -215407.0625)" gradientUnits="userSpaceOnUse">
			<stop  offset="0" style="stop-color:#5E5A65"/>
			<stop  offset="1" style="stop-color:#47434F"/>
		</radialGradient>
		<path fill="url(#SVGID_12_)" d="M93.2,230.6c0,0,4.7,10.2,4.7,16.4c0,9.4-6,69.3-6,69.3s-5.3,1-19.5,1c-14.2,0-15.8-1-15.8-1
			s-8.5-59.9-8.5-69.4c0-6.9,5.7-16.4,5.7-16.4C83.6,230.7,62.7,230.7,93.2,230.6z"/>
		<path fill="#343038" d="M96,270.1c-0.1,1.9-0.1,3.9-0.2,5.8l-0.4,5.8c-0.3,3.9-0.6,7.7-0.9,11.5c-0.7,7.7-1.4,15.4-2.3,23l0,0.3
			l-0.2,0c-0.7,0.1-1.5,0.2-2.2,0.2l-2.2,0.2l-4.4,0.2c-1.5,0.1-2.9,0.1-4.4,0.1l-4.4,0.1c-0.7,0-1.5,0-2.2,0l-2.2,0l-2.2,0
			c-0.7,0-1.5,0-2.2-0.1l-4.4-0.2c-0.7,0-1.5-0.1-2.2-0.2c-0.7-0.1-1.5-0.1-2.2-0.3l-0.2,0l0-0.2c-1-7.7-2-15.3-2.8-23
			c-0.4-3.8-0.8-7.7-1.2-11.6l-0.5-5.8c-0.2-1.9-0.2-3.9-0.3-5.8c0.1,1.9,0.2,3.9,0.4,5.8l0.6,5.8c0.5,3.8,0.9,7.7,1.4,11.5
			c0.5,3.8,1,7.7,1.5,11.5l1.5,11.5l-0.2-0.3c0.7,0.1,1.4,0.2,2.2,0.2c0.7,0.1,1.5,0.2,2.2,0.2l4.4,0.2c0.7,0,1.5,0,2.2,0l2.2,0
			l2.2,0c0.7,0,1.5,0,2.2,0l4.4-0.1c1.5,0,2.9,0,4.4-0.1l4.4-0.2c1.5-0.1,2.9-0.2,4.4-0.4l-0.3,0.3l1.3-11.5l1.2-11.5l1.1-11.5
			l0.5-5.8C95.8,273.9,95.9,272,96,270.1z"/>
		<path fill="#433F47" d="M53.8,230.7c-1,2.6-1.7,4.7-1.5,5.1c1.3,2.1,19.2,2.7,21.3,2.7c2,0,19.9-0.6,21.3-2.7
			c0.2-0.4-0.5-2.5-1.5-5.1C91.8,226.5,55.4,226.5,53.8,230.7z"/>
		
			<linearGradient id="SVGID_13_" gradientUnits="userSpaceOnUse" x1="1822.5748" y1="3336.666" x2="1823.5752" y2="3336.666" gradientTransform="matrix(-0.9838 66.6734 66.6734 0.9838 -220600.2812 -124631.4375)">
			<stop  offset="0" style="stop-color:#FCF8F7"/>
			<stop  offset="0.4138" style="stop-color:#FAF5F4"/>
			<stop  offset="0.7042" style="stop-color:#F4EDEB"/>
			<stop  offset="0.9562" style="stop-color:#EADFDC"/>
			<stop  offset="1" style="stop-color:#E8DCD8"/>
		</linearGradient>
		<path fill="url(#SVGID_13_)" d="M73.6,161.9c-2.9,0-28.8,1.5-29.2,2.3c-0.9,1.7,4.5,18.8,4.6,20.9c0.1,1.2,5.5,43.4,5.5,43.4
			s-3.1,4.9-2.5,5.7c1.3,1.8,19.6,2.3,21.6,2.3c2,0,20.3-0.5,21.6-2.3c0.6-0.8-2.5-5.7-2.5-5.7s5.4-42.3,5.5-43.4
			c0.1-2.1,5.5-19.2,4.6-20.9C102.4,163.4,76.5,161.9,73.6,161.9z"/>
		<path fill="#D8D2CF" d="M49,185.2l3,21.7l2.9,21.7l0,0.1l-0.1,0.1c-0.6,1-1.2,2-1.7,3c-0.3,0.5-0.5,1-0.7,1.6
			c-0.1,0.2-0.1,0.5-0.1,0.6l0,0l0,0l0,0l0.2,0.1c0.1,0,0.1,0.1,0.3,0.1c1,0.4,2.2,0.6,3.3,0.7c1.2,0.2,2.3,0.3,3.5,0.4
			c2.3,0.2,4.7,0.4,7,0.5c2.3,0.1,4.7,0.2,7,0.2c2.3,0,4.7-0.1,7-0.2c2.3-0.1,4.7-0.2,7-0.5c1.2-0.1,2.3-0.2,3.5-0.4
			c1.1-0.2,2.3-0.4,3.3-0.7c0.6-0.3,0.4-0.2,0.3-0.9c-0.2-0.5-0.4-1-0.7-1.6c-0.5-1-1.1-2.1-1.7-3l-0.1-0.1l0-0.1l2.9-21.7l3-21.7
			L97,196l-1.2,10.9l-2.6,21.7l-0.1-0.3c0.6,1,1.2,2,1.8,3.1c0.3,0.5,0.5,1.1,0.7,1.7c0.1,0.1,0.1,0.3,0.1,0.5c0,0.1,0,0.5,0,0.7
			l0,0.1l0,0l0,0l-0.1,0.1l-0.1,0.1l-0.2,0.2c-0.2,0.1-0.3,0.2-0.5,0.2c-1.2,0.5-2.4,0.6-3.5,0.8c-1.2,0.2-2.4,0.3-3.5,0.4
			c-2.4,0.2-4.7,0.4-7.1,0.5c-2.4,0.1-4.7,0.2-7.1,0.2c-2.4,0-4.7-0.1-7.1-0.3c-2.4-0.1-4.7-0.3-7.1-0.5c-1.2-0.1-2.4-0.2-3.5-0.4
			c-1.2-0.2-2.3-0.3-3.5-0.8c-0.1,0-0.3-0.2-0.5-0.3c-0.1-0.1-0.1-0.1-0.2-0.2l0,0c-0.1-0.1-0.1-0.1-0.1-0.1l-0.1-0.2
			c-0.1-0.5,0-0.8,0.1-1.1c0.2-0.6,0.5-1.1,0.7-1.7c0.5-1.1,1.1-2.1,1.8-3.1l-0.1,0.3l-2.6-21.7L49,185.2z"/>
		
			<radialGradient id="SVGID_14_" cx="1821.8993" cy="3337.5806" r="1.0002" gradientTransform="matrix(0 -20.139 -20.139 0 67289.2578 36879.2656)" gradientUnits="userSpaceOnUse">
			<stop  offset="0" style="stop-color:#FDD4B2"/>
			<stop  offset="0.5481" style="stop-color:#FDD3B0"/>
			<stop  offset="0.8003" style="stop-color:#FECFA8"/>
			<stop  offset="0.9917" style="stop-color:#FFC79C"/>
			<stop  offset="1" style="stop-color:#FFC79B"/>
		</radialGradient>
		<path fill="url(#SVGID_14_)" d="M63,166.9c0,0,8.4,21.1,10.8,21.1c2.3,0,10.1-21.1,10.1-21.1H63z"/>
		<path fill="#EBDEDA" d="M52.6,192.3c0,0,0.8,0.8,2.1,1.7c0.3,0.2,0.7,0.4,1.1,0.7c0.4,0.2,0.8,0.4,1.2,0.6
			c0.4,0.2,0.9,0.3,1.4,0.5c0.5,0.1,1,0.2,1.5,0.3c0.5,0,1,0.2,1.5,0.1c0.5,0,1,0.1,1.5,0c0.5,0,1,0,1.4-0.1
			c0.4-0.1,0.9-0.1,1.3-0.2c0.8-0.1,1.5-0.2,2-0.3c0.5-0.1,0.8-0.1,0.8-0.1s-0.2,0.2-0.6,0.4c-0.2,0.1-0.5,0.3-0.8,0.5
			c-0.3,0.2-0.6,0.4-1,0.5c-0.4,0.2-0.8,0.3-1.3,0.5c-0.5,0.1-1,0.3-1.5,0.4c-0.5,0.1-1.1,0.1-1.7,0.2c-0.6,0.1-1.2-0.1-1.8-0.1
			c-0.6-0.1-1.2-0.2-1.7-0.4c-0.6-0.2-1.1-0.4-1.6-0.7c-0.5-0.3-0.9-0.6-1.3-0.9c-0.4-0.3-0.7-0.7-1-1c-0.3-0.3-0.5-0.7-0.7-1
			c-0.2-0.3-0.3-0.6-0.4-0.8C52.6,192.6,52.6,192.3,52.6,192.3z"/>
		<path fill="#EBDEDA" d="M95.3,192.3c0,0,0,0.3-0.2,0.8c-0.1,0.2-0.2,0.5-0.4,0.8c-0.2,0.3-0.4,0.6-0.7,1c-0.3,0.4-0.6,0.7-1,1
			c-0.4,0.3-0.8,0.7-1.3,0.9c-0.5,0.3-1,0.5-1.6,0.7c-0.6,0.2-1.2,0.3-1.7,0.4c-0.6,0-1.2,0.2-1.8,0.1c-0.6,0-1.2,0-1.7-0.2
			c-0.5-0.1-1.1-0.2-1.5-0.4c-0.5-0.2-0.9-0.3-1.3-0.5c-0.4-0.1-0.7-0.3-1-0.5c-0.3-0.2-0.6-0.3-0.8-0.5c-0.4-0.3-0.6-0.4-0.6-0.4
			s0.3,0,0.8,0.1c0.5,0,1.2,0.2,2,0.3c0.4,0,0.8,0.1,1.3,0.2c0.5,0,0.9,0,1.4,0.1c0.5,0.1,1,0,1.5,0c0.5,0,1-0.1,1.5-0.1
			c0.5-0.1,1-0.2,1.5-0.3c0.5-0.2,0.9-0.3,1.4-0.5c0.4-0.2,0.8-0.4,1.2-0.6c0.4-0.2,0.8-0.4,1.1-0.7
			C94.5,193.1,95.3,192.3,95.3,192.3z"/>
		
			<linearGradient id="SVGID_15_" gradientUnits="userSpaceOnUse" x1="1823.3291" y1="3335.5916" x2="1824.3295" y2="3335.5916" gradientTransform="matrix(-0.1675 11.3536 11.3536 0.1675 -37510.5586 -21092.998)">
			<stop  offset="0" style="stop-color:#E3DFDE"/>
			<stop  offset="0.7584" style="stop-color:#E5DEDB"/>
			<stop  offset="1" style="stop-color:#E8DCD8"/>
		</linearGradient>
		<path fill="url(#SVGID_15_)" d="M44.2,166l0,0.1c0,0,20.1,13.2,20.9,12.7c0.8-0.5,0.8-8.7,0.2-9.5C64.7,168.6,44.4,164.9,44.2,166
			z"/>
		<path fill="#FFFBFD" d="M44.2,164c-0.2,0.3-0.1,1,0,2.1c0.2,1.1,20.2,10.2,20.9,9.7c0.8-0.5,0.8-8.2,0.2-8.9
			C64.7,166.2,44.6,163.1,44.2,164z"/>
		
			<linearGradient id="SVGID_16_" gradientUnits="userSpaceOnUse" x1="1823.2965" y1="3338.0994" x2="1824.2964" y2="3338.0994" gradientTransform="matrix(0.1675 11.3536 -11.3536 0.1675 37686.4023 -21093.0605)">
			<stop  offset="0" style="stop-color:#E3DFDE"/>
			<stop  offset="0.7584" style="stop-color:#E5DEDB"/>
			<stop  offset="1" style="stop-color:#E8DCD8"/>
		</linearGradient>
		<path fill="url(#SVGID_16_)" d="M103.2,166l0,0.1c0,0-20.1,13.2-20.9,12.7c-0.8-0.5-0.8-8.7-0.2-9.5
			C82.7,168.6,102.9,164.9,103.2,166z"/>
		<path fill="#FFFBFD" d="M103.2,164c0.2,0.3,0.1,1,0,2.1c-0.2,1.1-20.2,10.2-20.9,9.7c-0.8-0.5-0.8-8.2-0.2-8.9
			C82.6,166.2,102.8,163.1,103.2,164z"/>
		<path fill="#272827" d="M43.1,166.8c0,0,20,9.4,22.5,10.6c2.5,1.2,9.5,34,9.4,38.7s-1,25.8-1,25.8s-28.4-4.9-28-5.8
			c0.4-0.9,3.7-10.8,3.8-12.4s-4.2-39.4-4.2-39.4s-20.4,17-20.8,28.2c-0.3,11.2,16.8,19,16.8,19L35,247.5c0,0-29.1-12.3-28.1-31.4
			c1-19.9,9.2-31.1,14.5-36.1S39.9,166.8,43.1,166.8z"/>
		
			<linearGradient id="SVGID_17_" gradientUnits="userSpaceOnUse" x1="1824.2913" y1="3337.6675" x2="1825.2913" y2="3337.6675" gradientTransform="matrix(-4.4332 7.0764 -7.0764 -4.4332 31790.7266 2250.9141)">
			<stop  offset="0" style="stop-color:#786D48"/>
			<stop  offset="0.5346" style="stop-color:#705C41"/>
			<stop  offset="1" style="stop-color:#6B533D"/>
		</linearGradient>
		<path fill="url(#SVGID_17_)" d="M91.9,366.7c-0.2-0.3-9.5-0.8-10.1-1.2c-0.6-0.4-3.7-6.8-3.8-6.9l-0.5,0.4l1,10.7h1.2
			c0.1-0.1-0.7-6.5,0-6.6c0.7-0.1,1.1,6.2,1.6,6.6c0.5,0.4,9.5,0.2,9.8,0C91.3,369.5,92.1,366.9,91.9,366.7z"/>
		
			<radialGradient id="SVGID_18_" cx="1822.037" cy="3336.3425" r="0.9305" gradientTransform="matrix(23.9596 7.1402 7.1402 -23.9596 -67432.7812 67167.8203)" gradientUnits="userSpaceOnUse">
			<stop  offset="0" style="stop-color:#FDD4B2"/>
			<stop  offset="0.5056" style="stop-color:#FDD3B0"/>
			<stop  offset="0.7364" style="stop-color:#FECFA9"/>
			<stop  offset="0.9111" style="stop-color:#FFC79C"/>
			<stop  offset="0.9194" style="stop-color:#FFC79B"/>
			<stop  offset="1" style="stop-color:#FDCEA8"/>
		</radialGradient>
		<path fill="url(#SVGID_18_)" d="M45.5,249.6c0.5,0.9,9,3.1,10,2.7c1-0.4,7.8-11.5,7.8-12.2c0-0.7-3.2-5.7-3.8-6.1
			c-0.6-0.3-9-0.7-9.8-0.1C48.9,234.6,45,248.8,45.5,249.6z"/>
		<path fill="#F5B687" d="M16,112c0.2,5.8,3.8,12.2,8.3,12c11.2-0.4,6.3-21.3-0.5-21.1C19.3,103.1,15.7,106.2,16,112z"/>
		
			<linearGradient id="SVGID_19_" gradientUnits="userSpaceOnUse" x1="1819.5515" y1="3335.3748" x2="1820.5511" y2="3335.3748" gradientTransform="matrix(5.2252 -0.6492 -0.6492 -5.2252 -7326.3779 18721.7598)">
			<stop  offset="0" style="stop-color:#FDCBA3"/>
			<stop  offset="0.5327" style="stop-color:#FCC9A1"/>
			<stop  offset="0.7453" style="stop-color:#F8C39A"/>
			<stop  offset="0.9001" style="stop-color:#F2B98E"/>
			<stop  offset="1" style="stop-color:#EBAE81"/>
		</linearGradient>
		<path fill="url(#SVGID_19_)" d="M15.9,110c0.2,5.8,3.8,12.2,8.3,12c11.2-0.4,6.3-21.3-0.5-21.1C19.2,101.1,15.7,104.2,15.9,110z"
			/>
		<path fill="#F5B687" d="M129.8,110c0,5.8-3.4,12.3-7.8,12.3c-11.2,0-7-21.1-0.2-21.1C126.2,101.2,129.8,104.2,129.8,110z"/>
		
			<linearGradient id="SVGID_20_" gradientUnits="userSpaceOnUse" x1="1824.8265" y1="3334.7271" x2="1825.8263" y2="3334.7271" gradientTransform="matrix(-5.2446 -0.4659 0.4659 -5.2446 8146.7764 18450.0078)">
			<stop  offset="0" style="stop-color:#FDCBA3"/>
			<stop  offset="0.5327" style="stop-color:#FCC9A1"/>
			<stop  offset="0.7453" style="stop-color:#F8C39A"/>
			<stop  offset="0.9001" style="stop-color:#F2B98E"/>
			<stop  offset="1" style="stop-color:#EBAE81"/>
		</linearGradient>
		<path fill="url(#SVGID_20_)" d="M129.7,108c0,5.8-3.4,12.3-7.8,12.3c-11.2,0-7-21.1-0.2-21.1C126.1,99.2,129.7,102.2,129.7,108z"
			/>
		
			<radialGradient id="SVGID_21_" cx="1822.527" cy="3336.7173" r="0.9996" gradientTransform="matrix(4.6086 89.437 89.437 -4.6086 -306750.8125 -147539.4375)" gradientUnits="userSpaceOnUse">
			<stop  offset="0" style="stop-color:#FDD4B2"/>
			<stop  offset="0.1743" style="stop-color:#FDD3B0"/>
			<stop  offset="0.2539" style="stop-color:#FDCEA8"/>
			<stop  offset="0.2634" style="stop-color:#FDCDA7"/>
			<stop  offset="0.6544" style="stop-color:#FDCCA4"/>
			<stop  offset="0.9075" style="stop-color:#FFC79C"/>
			<stop  offset="0.9194" style="stop-color:#FFC79B"/>
			<stop  offset="1" style="stop-color:#FDCEA8"/>
		</radialGradient>
		<path fill="url(#SVGID_21_)" d="M73.8,168c-14.6,0.3-24.1-0.7-28.2-2.9c-3.9-2-21.3-32.6-21.8-37.1c-0.3-2.4-0.9-6.9-1.6-11.7
			c-3.9-27.4-3.9-30.1-4-33.8l0-0.8c-0.5-24.6,2.1-41,12.4-51.7c9-9.3,22.3-14,40.6-14.3c18.4-0.3,31.8,3.9,41.1,12.9
			c10.7,10.3,13.8,26.6,14.2,51.2l0,0.7c0.1,3.7,0.1,6.4-2.8,33.9c-0.5,4.8-1,9.3-1.2,11.8c-0.4,4.5-16.7,35.6-20.5,37.8
			C97.9,166.5,88.4,167.8,73.8,168z"/>
		
			<radialGradient id="SVGID_22_" cx="1822.5209" cy="3336.709" r="1.0002" gradientTransform="matrix(4.5412 88.1294 88.1294 -4.5412 -302264.375 -145381.5625)" gradientUnits="userSpaceOnUse">
			<stop  offset="0" style="stop-color:#FDD4B2"/>
			<stop  offset="0.1743" style="stop-color:#FDD3B0"/>
			<stop  offset="0.2539" style="stop-color:#FDCEA8"/>
			<stop  offset="0.2634" style="stop-color:#FDCDA7"/>
			<stop  offset="0.6544" style="stop-color:#FDCCA4"/>
			<stop  offset="0.9075" style="stop-color:#FFC79C"/>
			<stop  offset="0.9194" style="stop-color:#FFC79B"/>
			<stop  offset="1" style="stop-color:#FDCEA8"/>
		</radialGradient>
		<path fill="url(#SVGID_22_)" d="M125.4,78.9c-0.6-40.8-12.7-63.8-54.3-63.1c-41.5,0.7-52.8,24.2-52,65c0.1,4.1-0.2,5.1,4,34.4
			c0.7,5,1.3,9.3,1.6,11.7c0.6,4.5,17.9,34.5,21.3,36.3c5.5,2.9,20,2.9,27.7,2.8c7.7-0.1,22.2-0.7,27.6-3.7c3.4-1.9,19.6-32.5,20-37
			c0.2-2.4,0.7-6.8,1.2-11.8C125.8,84.2,125.5,83.1,125.4,78.9z"/>
		
			<linearGradient id="SVGID_23_" gradientUnits="userSpaceOnUse" x1="1819.8386" y1="3334.3105" x2="1820.8385" y2="3334.3105" gradientTransform="matrix(4.7117 0.6678 0.6678 -4.7117 -10726.7285 14614.7129)">
			<stop  offset="0" style="stop-color:#FDCDA6"/>
			<stop  offset="5.309433e-02" style="stop-color:#FDCEA8"/>
			<stop  offset="0.363" style="stop-color:#FDD0B0"/>
			<stop  offset="1" style="stop-color:#FDD1B2"/>
		</linearGradient>
		<path fill="url(#SVGID_23_)" d="M73.1,126.5c13.1-0.2,2.3-13.6,2.3-13.6L73.1,126.5z"/>
		<path fill="#EDB78D" d="M72.4,13.8c-0.6,0-1.2,0-1.8,0C52.4,14.4,38.8,19.6,30,29.1c-6.9,7.5-10.3,17-11.8,27.2
			C23.4,68.3,32.6,78,32.6,78l-0.9,4.3c30.9-7.9,43.6-24.4,43.6-24.4c0.1,8.2-5.9,17.4-5.9,17.4C92.3,69.2,100,45.8,100,45.8
			c13.4,16.9,17.2,43.4,17.2,43.4s4.4-13.3,2.2-22.6c2.1,4.1,5.3,10.3,8.1,13c0-0.2,0-0.3,0-0.4C127,55.9,126.1,12.8,72.4,13.8z"/>
		
			<radialGradient id="SVGID_24_" cx="1822.4658" cy="3336.8071" r="0.999" gradientTransform="matrix(3.5226 201.2491 201.2491 -3.5226 -677869.9375 -355028.0938)" gradientUnits="userSpaceOnUse">
			<stop  offset="0" style="stop-color:#BB6F4A"/>
			<stop  offset="0.1022" style="stop-color:#BB6F4A"/>
			<stop  offset="0.8925" style="stop-color:#8A422C"/>
			<stop  offset="1" style="stop-color:#8A422C"/>
		</radialGradient>
		<path fill="url(#SVGID_24_)" d="M133.1,61c-0.3-28.1-11.2-53.4-60.5-52.5C-27.9,10.3,25,127.8,22.2,113.7C16.3,84,33.6,76,33.6,76
			l-0.9,4.3c30.9-7.9,42.6-24.4,42.6-24.4c0.1,8.2-6,15.4-6,15.4C92.2,65.2,100,43.8,100,43.8c13.4,16.9,17.2,41.4,17.2,41.4
			s3.4-12.3,1.2-21.6c4.6,8.9,8.5,27.2,5.1,48.4C122.3,119,133.9,90.7,133.1,61z"/>
		<path fill="#D98A64" d="M16.6,33.8c0.8-1.5,1.7-3,2.7-4.4c1-1.4,2-2.9,3.1-4.2c1.1-1.4,2.2-2.7,3.5-3.9c1.2-1.3,2.5-2.5,3.8-3.6
			c2.7-2.3,5.5-4.3,8.6-6.1c3.1-1.8,6.3-3.2,9.6-4.4c3.3-1.2,6.8-2,10.3-2.5c3.5-0.5,7.1-0.7,10.7-0.5c3.6,0.2,7.2,0.7,10.6,1.9
			c1.7,0.6,3.5,1.3,5.1,2.3c1.6,1,3.2,2.3,4.4,4.1l-1.7-0.9c1.4,0,2.7,0,4.1,0.1c0.7,0,1.4,0.1,2.1,0.1c0.7,0.1,1.4,0.1,2.1,0.2
			c1.4,0.2,2.7,0.4,4.1,0.6l2,0.4l2,0.5l2,0.6l2,0.7l1.9,0.8l1.9,0.9l1.8,1c0.6,0.4,1.2,0.7,1.8,1.1c1.2,0.7,2.3,1.5,3.4,2.4
			c1.1,0.9,2.1,1.7,3.1,2.7c0.5,0.5,1,1,1.4,1.5c0.5,0.5,0.9,1,1.4,1.5c0.9,1,1.7,2.1,2.5,3.3c0.8,1.1,1.5,2.3,2.2,3.5
			c0.7,1.2,1.3,2.4,1.9,3.6c0.6,1.2,1.1,2.5,1.6,3.7c0.5,1.3,0.9,2.5,1.3,3.8c0.4,1.3,0.8,2.6,1.1,3.9c-0.5-1.2-1-2.5-1.6-3.7
			c-0.6-1.2-1.1-2.4-1.7-3.6c-0.6-1.2-1.3-2.3-1.9-3.5c-0.7-1.1-1.4-2.2-2.1-3.3c-0.8-1.1-1.5-2.1-2.4-3.1c-0.8-1-1.7-2-2.6-2.9
			c-0.5-0.5-0.9-0.9-1.4-1.4c-0.5-0.4-0.9-0.9-1.4-1.3c-1-0.8-2-1.6-3-2.4c-1-0.7-2.1-1.4-3.3-2c-0.6-0.3-1.1-0.6-1.7-0.9l-1.7-0.8
			l-1.8-0.7l-1.8-0.7l-1.8-0.6l-1.9-0.5l-1.9-0.4l-1.9-0.3c-1.3-0.2-2.6-0.4-3.8-0.5c-1.3-0.1-2.6-0.2-3.9-0.2c-1.3-0.1-2.6,0-3.9,0
			l-1.1,0l-0.6-0.9c-0.7-1.1-1.9-2.1-3.2-2.8c-1.3-0.8-2.8-1.4-4.3-1.9c-3-1-6.3-1.6-9.6-1.8c-3.3-0.2-6.6-0.1-9.9,0.3
			c-3.3,0.4-6.6,1.1-9.8,2.1c-3.2,1-6.3,2.2-9.3,3.7c-3,1.5-5.9,3.2-8.6,5.2c-2.7,2-5.3,4.2-7.7,6.7C20.8,28.4,18.6,31,16.6,33.8z"
			/>
		<path fill="#FF7888" d="M73.5,145.8c-4.7,0.1-19.9-1.3-19.2-6.2c0.2-1.1,1-1.9,2-1.9c0.1,0,0.3,0,0.4,0c0,0,4.8,0.9,16.6,0.7
			c11.8-0.2,16.6-1.2,16.6-1.2c0.1,0,0.3,0,0.4,0c1,0,1.9,0.8,2.1,1.8C93.3,143.5,79.7,145.7,73.5,145.8z"/>
		
			<radialGradient id="SVGID_25_" cx="1822.2126" cy="2637.6492" r="1.0001" gradientTransform="matrix(-16.4869 10.0974 10.0974 16.4869 3469.7473 -61785.207)" gradientUnits="userSpaceOnUse">
			<stop  offset="0" style="stop-color:#664553"/>
			<stop  offset="0.4093" style="stop-color:#513540"/>
			<stop  offset="0.8763" style="stop-color:#332027"/>
			<stop  offset="1" style="stop-color:#533C43"/>
		</radialGradient>
		<path fill="url(#SVGID_25_)" d="M60.6,108.4c-2.3,4.5-7.7,6-12.3,3.7c-4.6-2.3-6.2-7.6-3.8-12.1c2.3-4.5,6.9-4.2,11.4-1.8
			C60.5,100.5,62.9,103.9,60.6,108.4z"/>
		<path fill="#FFFFFF" d="M59.6,103c1,2,0.7,4.2-0.7,4.9c-1.4,0.8-5.2-6.4-3.7-7.2C56.6,100,58.6,101,59.6,103z"/>
		
			<radialGradient id="SVGID_26_" cx="1822.168" cy="2637.5808" r="1" gradientTransform="matrix(15.7424 11.2229 -11.2229 15.7424 1000.6655 -61871.1406)" gradientUnits="userSpaceOnUse">
			<stop  offset="0" style="stop-color:#664553"/>
			<stop  offset="0.4093" style="stop-color:#513540"/>
			<stop  offset="0.8763" style="stop-color:#332027"/>
			<stop  offset="1" style="stop-color:#533C43"/>
		</radialGradient>
		<path fill="url(#SVGID_26_)" d="M84.1,108.1c2,4.6,7.2,6.6,12,4.5c4.7-2,6.7-7.1,4.7-11.8c-2-4.6-6.5-4.7-11.3-2.6
			C84.7,100.2,82,103.4,84.1,108.1z"/>
		<path fill="#FFFFFF" d="M99.1,101.4c1,2,0.7,4.2-0.7,4.9c-1.4,0.8-5.2-6.4-3.7-7.2C96,98.4,98,99.4,99.1,101.4z"/>
		<path fill="#272827" d="M79.6,178.8c0,0,21.1-7.8,23.7-11s-5.3,18.9-5.8,23.5c-0.5,4.7-3.6,36.2-3.6,36.2s4.1,9.7,3.9,10.9
			c-0.1,1.2-23,2.7-23,2.7l0-25.1L79.6,178.8z"/>
	</g>
</g>
<g id="Layer_2">
</g>
</svg>
