<?xml version="1.0" encoding="utf-8"?>
<!-- Generator: Adobe Illustrator 18.1.0, SVG Export Plug-In . SVG Version: 6.00 Build 0)  -->
<!DOCTYPE svg PUBLIC "-//W3C//DTD SVG 1.1//EN" "http://www.w3.org/Graphics/SVG/1.1/DTD/svg11.dtd">
<svg version="1.1" id="Isolation_Mode" xmlns="http://www.w3.org/2000/svg" xmlns:xlink="http://www.w3.org/1999/xlink" x="0px"
	 y="0px" viewBox="0 0 73.4 57.6" enable-background="new 0 0 73.4 57.6" xml:space="preserve">
<g>
	<path fill="#FFFFFF" d="M57.8,24c-2.5-0.8-5.4,1.3-6.3,4c-0.9,2.8,0.5,5.2,3,6c2.5,0.8,5-0.2,6-2.9C61.3,28.3,60.3,24.8,57.8,24z
		 M59,30.3c-0.6,1.8-2.4,2.6-4,2.1c-1.6-0.5-2.6-2.2-1.9-4.1c0.6-1.8,2.5-3.1,4.2-2.6C58.9,26.2,59.6,28.4,59,30.3z"/>
	<path fill="#FFFFFF" d="M18.9,23.6c-2.5-0.8-5,0.2-5.9,2.9c-0.9,2.8,0.1,6.3,2.6,7.1c2.5,0.8,5.4-1.3,6.3-4
		C22.8,26.8,21.4,24.4,18.9,23.6z M20.3,29.4c-0.6,1.8-2.5,3.1-4.2,2.6c-1.6-0.5-2.4-2.7-1.8-4.6c0.6-1.8,2.4-2.6,4-2.1
		C20,25.8,20.9,27.5,20.3,29.4z"/>
	<path fill="#FFFFFF" d="M12.4,0C8.3,12.5,4.1,25,0,37.4c13.9,26.2,47.1-6,61,20.2c4.1-12.5,8.3-25,12.4-37.4
		C59.5-6,26.3,26.2,12.4,0z M61.9,46.9c-0.1,0.2-0.2,0.4-0.4,0.4c-0.2,0-0.4-0.2-0.5-0.4c-0.2-0.3-0.2-0.4-0.3-0.5
		c-1.3-1.6-3-1-3.6,0.8c-0.1,0.2-0.2,0.5-0.4,0.6c-0.2,0.1-0.4,0.1-0.6,0c-13.6-10.5-35.7,4.5-49.4-5.9c-0.2-0.1-0.3-0.4-0.4-0.6
		c-0.1-0.3-0.1-0.5,0-0.8c0,0,0.1-0.2,0.1-0.2c0.6-1.9-0.2-4.7-1.6-6.1c-0.2-0.2-0.4-0.5-0.4-0.9c-0.1-0.3-0.1-0.7,0-1
		c2.4-7.2,4.8-14.4,7.2-21.7c0.1-0.2,0.2-0.4,0.4-0.4c0.2,0,0.4,0.2,0.5,0.4c1.2,2,3.2,1.7,3.9-0.3c0.1-0.2,0.2-0.5,0.4-0.6
		c0.2-0.1,0.4-0.2,0.6,0C31,20.3,53.1,5.3,66.7,15.7c0.2,0.1,0.3,0.4,0.4,0.7c0.1,0.3,0.1,0.6,0,0.8c-0.2-0.1-0.5-0.2-0.7-0.3
		c0.2,0.2,0.4,0.4,0.6,0.6c-0.7,2,0.3,4.7,1.7,6.2c0.2,0.2,0.3,0.5,0.4,0.8c0.1,0.3,0.1,0.7,0,0.9C66.7,32.5,64.3,39.7,61.9,46.9z"
		/>
	<path fill="#FFFFFF" d="M40.7,16.8c-6.9,1-14.1,6.4-16.3,13c-2.2,6.7,1.3,12.1,8.3,11.1c7-1,14.1-6.4,16.3-13
		C51.2,21.2,47.6,15.7,40.7,16.8z"/>
</g>
</svg>
