<?xml version="1.0" encoding="UTF-8" standalone="no"?>
<svg
   xmlns:dc="http://purl.org/dc/elements/1.1/"
   xmlns:cc="http://creativecommons.org/ns#"
   xmlns:rdf="http://www.w3.org/1999/02/22-rdf-syntax-ns#"
   xmlns:svg="http://www.w3.org/2000/svg"
   xmlns="http://www.w3.org/2000/svg"
   xmlns:sodipodi="http://sodipodi.sourceforge.net/DTD/sodipodi-0.dtd"
   xmlns:inkscape="http://www.inkscape.org/namespaces/inkscape"
   version="1.1"
   x="0px"
   y="0px"
   width="100px"
   height="100px"
   viewBox="0 0 100 100"
   xml:space="preserve"
   id="svg3033"
   inkscape:version="0.48.3.1 r9886"
   sodipodi:docname="wyjazdy.svg"><metadata
   id="metadata3041"><rdf:RDF><cc:Work
       rdf:about=""><dc:format>image/svg+xml</dc:format><dc:type
         rdf:resource="http://purl.org/dc/dcmitype/StillImage" /></cc:Work></rdf:RDF></metadata><defs
   id="defs3039" /><sodipodi:namedview
   pagecolor="#ffffff"
   bordercolor="#666666"
   borderopacity="1"
   objecttolerance="10"
   gridtolerance="10"
   guidetolerance="10"
   inkscape:pageopacity="0"
   inkscape:pageshadow="2"
   inkscape:window-width="1375"
   inkscape:window-height="1026"
   id="namedview3037"
   showgrid="false"
   inkscape:zoom="8.47"
   inkscape:cx="29.220779"
   inkscape:cy="50"
   inkscape:window-x="65"
   inkscape:window-y="24"
   inkscape:window-maximized="1"
   inkscape:current-layer="svg3033" />

<path
   d="M 100 0 C 93.93262 0 86.23828 3.95703 78.9375 9.1875 L 63.8125 24.21875 L 45.09375 22.46875 L 47.125 20.4375 C 47.4043 20.1582 47.4043 19.7168 47.125 19.4375 L 45.28125 17.59375 C 45.00195 17.31445 44.56055 17.31445 44.28125 17.59375 L 39.90625 21.96875 L 30.3125 21.0625 L 32.5 18.875 C 32.77881 18.59522 32.77881 18.12256 32.5 17.84375 L 30.65625 16.03125 C 30.37695 15.75195 29.93555 15.75195 29.65625 16.03125 L 25.09375 20.59375 L 9.28125 19.125 L 4.28125 24.46875 L 21.34375 29.78125 L 36.25 35.28125 L 46.34375 41.625 L 32.15625 55.71875 C 27.36201 62.052608 23.457577 68.141383 20.46875 73.1875 L 2.28125 71.78125 L 0 74.0625 L 15.1875 82.71875 C 14.282544 84.487389 13.78125 85.53125 13.78125 85.53125 C 13.78125 85.53125 14.833961 85.057616 16.59375 84.1875 L 24.9375 99.9375 L 27.0625 97.8125 L 26.25 78.96875 C 31.320354 76.024161 37.420238 72.17763 43.78125 67.375 L 57.90625 53.21875 L 63.875 62.5625 L 69.53125 77.125 L 75.25 95.34375 L 80.4375 90.21875 L 78.78125 72.21875 L 82.3125 68.6875 C 82.59082 68.40821 82.59082 67.93555 82.3125 67.65625 L 80.46875 65.84375 C 80.18848 65.56445 79.74707 65.56445 79.46875 65.84375 L 78.28125 67.03125 L 77.65625 60.28125 L 82.3125 55.625 C 82.59082 55.34571 82.59082 54.90332 82.3125 54.625 L 80.46875 52.78125 C 80.18848 52.50195 79.74707 52.50195 79.46875 52.78125 L 77.15625 55.09375 L 75.375 35.78125 L 90.84375 20.28125 C 96.05371 13.17382 100 5.7334 100 0 z "
   id="path3035"
   style="fill:#ffffff;fill-opacity:1" />
</svg>